<?xml version="1.0" encoding="UTF-8" standalone="no"?>
<svg
   width="533.56531pt"
   height="170.66852pt"
   viewBox="0 0 533.5653 170.66852"
   version="1.1"
   id="svg116"
   sodipodi:docname="RealAmplitudes-LinearEntanglement.svg"
   inkscape:version="1.3.2 (091e20e, 2023-11-25, custom)"
   xmlns:inkscape="http://www.inkscape.org/namespaces/inkscape"
   xmlns:sodipodi="http://sodipodi.sourceforge.net/DTD/sodipodi-0.dtd"
   xmlns:xlink="http://www.w3.org/1999/xlink"
   xmlns="http://www.w3.org/2000/svg"
   xmlns:svg="http://www.w3.org/2000/svg"
   xmlns:rdf="http://www.w3.org/1999/02/22-rdf-syntax-ns#"
   xmlns:cc="http://creativecommons.org/ns#"
   xmlns:dc="http://purl.org/dc/elements/1.1/">
  <sodipodi:namedview
     id="namedview116"
     pagecolor="#ffffff"
     bordercolor="#000000"
     borderopacity="0.25"
     inkscape:showpageshadow="2"
     inkscape:pageopacity="0.0"
     inkscape:pagecheckerboard="0"
     inkscape:deskcolor="#d1d1d1"
     inkscape:document-units="pt"
     inkscape:zoom="0.56176183"
     inkscape:cx="452.14891"
     inkscape:cy="349.79237"
     inkscape:window-width="1366"
     inkscape:window-height="745"
     inkscape:window-x="-8"
     inkscape:window-y="-8"
     inkscape:window-maximized="1"
     inkscape:current-layer="svg116">
    <inkscape:page
       x="0"
       y="0"
       width="533.56531"
       height="170.66852"
       id="page116"
       margin="0 0 0 0"
       bleed="0" />
  </sodipodi:namedview>
  <metadata
     id="metadata1">
    <rdf:RDF>
      <cc:Work>
        <dc:type
           rdf:resource="http://purl.org/dc/dcmitype/StillImage" />
        <dc:date>2024-12-15T17:18:44.521039</dc:date>
        <dc:format>image/svg+xml</dc:format>
        <dc:creator>
          <cc:Agent>
            <dc:title>Matplotlib v3.7.0, https://matplotlib.org/</dc:title>
          </cc:Agent>
        </dc:creator>
      </cc:Work>
    </rdf:RDF>
  </metadata>
  <defs
     id="defs1">
    <style
       type="text/css"
       id="style1">*{stroke-linejoin: round; stroke-linecap: butt}</style>
    <clipPath
       clipPathUnits="userSpaceOnUse"
       id="clipPath117">
      <rect
         style="fill:#f9f9f9;stroke:#000000;stroke-width:0;stroke-linejoin:bevel;stroke-dasharray:none;paint-order:stroke markers fill"
         id="rect118"
         width="532.86102"
         height="172.38797"
         x="58.51469"
         y="0" />
    </clipPath>
  </defs>
  <g
     id="figure_1"
     clip-path="url(#clipPath117)"
     transform="translate(-57.961683,-0.66754004)">
    <g
       id="patch_1">
      <path
         d="M 0,172.0036 H 590.97399 V 0 H 0 Z"
         style="fill:#f5f5f5"
         id="path1" />
    </g>
    <g
       id="axes_1">
      <g
         id="line2d_1">
        <path
           d="M 64.609196,44.2832 H 579.13859"
           clip-path="url(#p2bb27ce660)"
           style="fill:none;stroke:#000000;stroke-width:2;stroke-linecap:square"
           id="path2" />
      </g>
      <g
         id="line2d_2">
        <path
           d="M 64.609196,90.637199 H 579.13859"
           clip-path="url(#p2bb27ce660)"
           style="fill:none;stroke:#000000;stroke-width:2;stroke-linecap:square"
           id="path3" />
      </g>
      <g
         id="line2d_3">
        <path
           d="M 64.609196,136.9912 H 579.13859"
           clip-path="url(#p2bb27ce660)"
           style="fill:none;stroke:#000000;stroke-width:2;stroke-linecap:square"
           id="path4" />
      </g>
      <g
         id="patch_2">
        <path
           d="M 59.973797,21.1062 H -1098.8762 v 185.416 H 59.973797 Z"
           clip-path="url(#p2bb27ce660)"
           style="fill:#f5f5f5;stroke:#f5f5f5;stroke-width:1.5;stroke-linejoin:miter"
           id="path5" />
      </g>
      <g
         id="line2d_4">
        <path
           d="M 182.34835,136.9912 V 90.637199"
           clip-path="url(#p2bb27ce660)"
           style="fill:none;stroke:#6fa4ff;stroke-width:2;stroke-linecap:square"
           id="path6" />
      </g>
      <g
         id="line2d_5">
        <path
           d="M 228.70235,90.637199 V 44.2832"
           clip-path="url(#p2bb27ce660)"
           style="fill:none;stroke:#6fa4ff;stroke-width:2;stroke-linecap:square"
           id="path7" />
      </g>
      <g
         id="line2d_6">
        <path
           d="M 414.11835,136.9912 V 90.637199"
           clip-path="url(#p2bb27ce660)"
           style="fill:none;stroke:#6fa4ff;stroke-width:2;stroke-linecap:square"
           id="path8" />
      </g>
      <g
         id="line2d_7">
        <path
           d="M 460.47235,90.637199 V 44.2832"
           clip-path="url(#p2bb27ce660)"
           style="fill:none;stroke:#6fa4ff;stroke-width:2;stroke-linecap:square"
           id="path9" />
      </g>
      <g
         id="patch_3">
        <path
           d="m 126.95533,67.460199 h 18.07805 V 21.1062 h -18.07805 z"
           clip-path="url(#p2bb27ce660)"
           style="opacity:0.6;fill:#bdbdbd"
           id="path10" />
      </g>
      <g
         id="patch_4">
        <path
           d="m 126.95533,113.8142 h 18.07805 V 67.460199 h -18.07805 z"
           clip-path="url(#p2bb27ce660)"
           style="opacity:0.6;fill:#bdbdbd"
           id="path11" />
      </g>
      <g
         id="patch_5">
        <path
           d="m 126.95533,160.1682 h 18.07805 v -46.354 h -18.07805 z"
           clip-path="url(#p2bb27ce660)"
           style="opacity:0.6;fill:#bdbdbd"
           id="path12" />
      </g>
      <g
         id="patch_6">
        <path
           d="m 266.01732,67.460199 h 18.07806 V 21.1062 h -18.07806 z"
           clip-path="url(#p2bb27ce660)"
           style="opacity:0.6;fill:#bdbdbd"
           id="path13" />
      </g>
      <g
         id="patch_7">
        <path
           d="m 266.01732,113.8142 h 18.07806 V 67.460199 h -18.07806 z"
           clip-path="url(#p2bb27ce660)"
           style="opacity:0.6;fill:#bdbdbd"
           id="path14" />
      </g>
      <g
         id="patch_8">
        <path
           d="m 266.01732,160.1682 h 18.07806 v -46.354 h -18.07806 z"
           clip-path="url(#p2bb27ce660)"
           style="opacity:0.6;fill:#bdbdbd"
           id="path15" />
      </g>
      <g
         id="patch_9">
        <path
           d="m 358.72532,67.460199 h 18.07806 V 21.1062 h -18.07806 z"
           clip-path="url(#p2bb27ce660)"
           style="opacity:0.6;fill:#bdbdbd"
           id="path16" />
      </g>
      <g
         id="patch_10">
        <path
           d="m 358.72532,113.8142 h 18.07806 V 67.460199 h -18.07806 z"
           clip-path="url(#p2bb27ce660)"
           style="opacity:0.6;fill:#bdbdbd"
           id="path17" />
      </g>
      <g
         id="patch_11">
        <path
           d="m 358.72532,160.1682 h 18.07806 v -46.354 h -18.07806 z"
           clip-path="url(#p2bb27ce660)"
           style="opacity:0.6;fill:#bdbdbd"
           id="path18" />
      </g>
      <g
         id="patch_12">
        <path
           d="m 497.78732,67.460199 h 18.07806 V 21.1062 h -18.07806 z"
           clip-path="url(#p2bb27ce660)"
           style="opacity:0.6;fill:#bdbdbd"
           id="path19" />
      </g>
      <g
         id="patch_13">
        <path
           d="m 497.78732,113.8142 h 18.07806 V 67.460199 h -18.07806 z"
           clip-path="url(#p2bb27ce660)"
           style="opacity:0.6;fill:#bdbdbd"
           id="path20" />
      </g>
      <g
         id="patch_14">
        <path
           d="m 497.78732,160.1682 h 18.07806 v -46.354 h -18.07806 z"
           clip-path="url(#p2bb27ce660)"
           style="opacity:0.6;fill:#bdbdbd"
           id="path21" />
      </g>
      <g
         id="patch_15">
        <path
           d="M 74.575306,59.348249 H 104.70541 V 29.21815 H 74.575306 Z"
           clip-path="url(#p2bb27ce660)"
           style="fill:#bb8bff;stroke:#bb8bff;stroke-width:1.5;stroke-linejoin:miter"
           id="path22" />
      </g>
      <g
         id="patch_16">
        <path
           d="M 74.575306,105.70225 H 104.70541 V 75.572149 H 74.575306 Z"
           clip-path="url(#p2bb27ce660)"
           style="fill:#bb8bff;stroke:#bb8bff;stroke-width:1.5;stroke-linejoin:miter"
           id="path23" />
      </g>
      <g
         id="patch_17">
        <path
           d="m 74.575306,152.05625 h 30.130104 v -30.1301 H 74.575306 Z"
           clip-path="url(#p2bb27ce660)"
           style="fill:#bb8bff;stroke:#bb8bff;stroke-width:1.5;stroke-linejoin:miter"
           id="path24" />
      </g>
      <g
         id="patch_18">
        <path
           d="m 182.34835,95.156714 c 1.19859,0 2.34825,-0.476205 3.19578,-1.323735 0.84753,-0.847531 1.32374,-1.997191 1.32374,-3.19578 0,-1.198589 -0.47621,-2.348249 -1.32374,-3.19578 -0.84753,-0.84753 -1.99719,-1.323735 -3.19578,-1.323735 -1.19858,0 -2.34824,0.476205 -3.19577,1.323735 -0.84754,0.847531 -1.32374,1.997191 -1.32374,3.19578 0,1.198589 0.4762,2.348249 1.32374,3.19578 0.84753,0.84753 1.99719,1.323735 3.19577,1.323735 z"
           clip-path="url(#p2bb27ce660)"
           style="fill:#6fa4ff;stroke:#6fa4ff;stroke-width:1.5;stroke-linejoin:miter"
           id="path25" />
      </g>
      <g
         id="patch_19">
        <path
           d="m 182.34835,147.53673 c 2.79671,0 5.47925,-1.11114 7.45682,-3.08871 1.97758,-1.97757 3.08872,-4.66011 3.08872,-7.45682 0,-2.79671 -1.11114,-5.47925 -3.08872,-7.45682 -1.97757,-1.97757 -4.66011,-3.08872 -7.45682,-3.08872 -2.7967,0 -5.47924,1.11115 -7.45681,3.08872 -1.97758,1.97757 -3.08872,4.66011 -3.08872,7.45682 0,2.79671 1.11114,5.47925 3.08872,7.45682 1.97757,1.97757 4.66011,3.08871 7.45681,3.08871 z"
           clip-path="url(#p2bb27ce660)"
           style="fill:#6fa4ff;stroke:#6fa4ff;stroke-width:2;stroke-linejoin:miter"
           id="path26" />
      </g>
      <g
         id="patch_20">
        <path
           d="m 228.70235,48.802714 c 1.19859,0 2.34825,-0.476204 3.19578,-1.323735 0.84753,-0.847531 1.32374,-1.99719 1.32374,-3.195779 0,-1.19859 -0.47621,-2.348249 -1.32374,-3.19578 -0.84753,-0.847531 -1.99719,-1.323735 -3.19578,-1.323735 -1.19859,0 -2.34825,0.476204 -3.19578,1.323735 -0.84753,0.847531 -1.32373,1.99719 -1.32373,3.19578 0,1.198589 0.4762,2.348248 1.32373,3.195779 0.84753,0.847531 1.99719,1.323735 3.19578,1.323735 z"
           clip-path="url(#p2bb27ce660)"
           style="fill:#6fa4ff;stroke:#6fa4ff;stroke-width:1.5;stroke-linejoin:miter"
           id="path27" />
      </g>
      <g
         id="patch_21">
        <path
           d="m 228.70235,101.18273 c 2.79671,0 5.47925,-1.11114 7.45682,-3.088712 1.97757,-1.977571 3.08872,-4.660111 3.08872,-7.456819 0,-2.796709 -1.11115,-5.479248 -3.08872,-7.456819 -1.97757,-1.977572 -4.66011,-3.088716 -7.45682,-3.088716 -2.7967,0 -5.47924,1.111144 -7.45682,3.088716 -1.97757,1.977571 -3.08871,4.66011 -3.08871,7.456819 0,2.796708 1.11114,5.479248 3.08871,7.456819 1.97758,1.977572 4.66012,3.088712 7.45682,3.088712 z"
           clip-path="url(#p2bb27ce660)"
           style="fill:#6fa4ff;stroke:#6fa4ff;stroke-width:2;stroke-linejoin:miter"
           id="path28" />
      </g>
      <g
         id="patch_22">
        <path
           d="m 306.3453,59.348249 h 30.1301 V 29.21815 h -30.1301 z"
           clip-path="url(#p2bb27ce660)"
           style="fill:#bb8bff;stroke:#bb8bff;stroke-width:1.5;stroke-linejoin:miter"
           id="path29" />
      </g>
      <g
         id="patch_23">
        <path
           d="m 306.3453,105.70225 h 30.1301 V 75.572149 h -30.1301 z"
           clip-path="url(#p2bb27ce660)"
           style="fill:#bb8bff;stroke:#bb8bff;stroke-width:1.5;stroke-linejoin:miter"
           id="path30" />
      </g>
      <g
         id="patch_24">
        <path
           d="m 306.3453,152.05625 h 30.1301 v -30.1301 h -30.1301 z"
           clip-path="url(#p2bb27ce660)"
           style="fill:#bb8bff;stroke:#bb8bff;stroke-width:1.5;stroke-linejoin:miter"
           id="path31" />
      </g>
      <g
         id="patch_25">
        <path
           d="m 414.11835,95.156714 c 1.19859,0 2.34825,-0.476205 3.19578,-1.323735 0.84753,-0.847531 1.32374,-1.997191 1.32374,-3.19578 0,-1.198589 -0.47621,-2.348249 -1.32374,-3.19578 -0.84753,-0.84753 -1.99719,-1.323735 -3.19578,-1.323735 -1.19859,0 -2.34825,0.476205 -3.19578,1.323735 -0.84753,0.847531 -1.32373,1.997191 -1.32373,3.19578 0,1.198589 0.4762,2.348249 1.32373,3.19578 0.84753,0.84753 1.99719,1.323735 3.19578,1.323735 z"
           clip-path="url(#p2bb27ce660)"
           style="fill:#6fa4ff;stroke:#6fa4ff;stroke-width:1.5;stroke-linejoin:miter"
           id="path32" />
      </g>
      <g
         id="patch_26">
        <path
           d="m 414.11835,147.53673 c 2.79671,0 5.47925,-1.11114 7.45682,-3.08871 1.97757,-1.97757 3.08872,-4.66011 3.08872,-7.45682 0,-2.79671 -1.11115,-5.47925 -3.08872,-7.45682 -1.97757,-1.97757 -4.66011,-3.08872 -7.45682,-3.08872 -2.79671,0 -5.47925,1.11115 -7.45682,3.08872 -1.97757,1.97757 -3.08871,4.66011 -3.08871,7.45682 0,2.79671 1.11114,5.47925 3.08871,7.45682 1.97757,1.97757 4.66011,3.08871 7.45682,3.08871 z"
           clip-path="url(#p2bb27ce660)"
           style="fill:#6fa4ff;stroke:#6fa4ff;stroke-width:2;stroke-linejoin:miter"
           id="path33" />
      </g>
      <g
         id="patch_27">
        <path
           d="m 460.47235,48.802714 c 1.19859,0 2.34825,-0.476204 3.19578,-1.323735 0.84753,-0.847531 1.32374,-1.99719 1.32374,-3.195779 0,-1.19859 -0.47621,-2.348249 -1.32374,-3.19578 -0.84753,-0.847531 -1.99719,-1.323735 -3.19578,-1.323735 -1.19859,0 -2.34825,0.476204 -3.19578,1.323735 -0.84753,0.847531 -1.32373,1.99719 -1.32373,3.19578 0,1.198589 0.4762,2.348248 1.32373,3.195779 0.84753,0.847531 1.99719,1.323735 3.19578,1.323735 z"
           clip-path="url(#p2bb27ce660)"
           style="fill:#6fa4ff;stroke:#6fa4ff;stroke-width:1.5;stroke-linejoin:miter"
           id="path34" />
      </g>
      <g
         id="patch_28">
        <path
           d="m 460.47235,101.18273 c 2.79671,0 5.47925,-1.11114 7.45682,-3.088712 1.97757,-1.977571 3.08872,-4.660111 3.08872,-7.456819 0,-2.796709 -1.11115,-5.479248 -3.08872,-7.456819 -1.97757,-1.977572 -4.66011,-3.088716 -7.45682,-3.088716 -2.79671,0 -5.47925,1.111144 -7.45682,3.088716 -1.97757,1.977571 -3.08871,4.66011 -3.08871,7.456819 0,2.796708 1.11114,5.479248 3.08871,7.456819 1.97757,1.977572 4.66011,3.088712 7.45682,3.088712 z"
           clip-path="url(#p2bb27ce660)"
           style="fill:#6fa4ff;stroke:#6fa4ff;stroke-width:2;stroke-linejoin:miter"
           id="path35" />
      </g>
      <g
         id="patch_29">
        <path
           d="m 538.1153,59.348249 h 30.1301 V 29.21815 h -30.1301 z"
           clip-path="url(#p2bb27ce660)"
           style="fill:#bb8bff;stroke:#bb8bff;stroke-width:1.5;stroke-linejoin:miter"
           id="path36" />
      </g>
      <g
         id="patch_30">
        <path
           d="m 538.1153,105.70225 h 30.1301 V 75.572149 h -30.1301 z"
           clip-path="url(#p2bb27ce660)"
           style="fill:#bb8bff;stroke:#bb8bff;stroke-width:1.5;stroke-linejoin:miter"
           id="path37" />
      </g>
      <g
         id="patch_31">
        <path
           d="m 538.1153,152.05625 h 30.1301 v -30.1301 h -30.1301 z"
           clip-path="url(#p2bb27ce660)"
           style="fill:#bb8bff;stroke:#bb8bff;stroke-width:1.5;stroke-linejoin:miter"
           id="path38" />
      </g>
      <g
         id="line2d_8">
        <path
           d="M 182.34835,143.01722 V 130.96518"
           clip-path="url(#p2bb27ce660)"
           style="fill:none;stroke:#ffffff;stroke-width:2;stroke-linecap:square"
           id="path39" />
      </g>
      <g
         id="line2d_9">
        <path
           d="m 176.32233,136.9912 h 12.05204"
           clip-path="url(#p2bb27ce660)"
           style="fill:none;stroke:#ffffff;stroke-width:2;stroke-linecap:square"
           id="path40" />
      </g>
      <g
         id="line2d_10">
        <path
           d="M 228.70235,96.663219 V 84.611179"
           clip-path="url(#p2bb27ce660)"
           style="fill:none;stroke:#ffffff;stroke-width:2;stroke-linecap:square"
           id="path41" />
      </g>
      <g
         id="line2d_11">
        <path
           d="m 222.67633,90.637199 h 12.05204"
           clip-path="url(#p2bb27ce660)"
           style="fill:none;stroke:#ffffff;stroke-width:2;stroke-linecap:square"
           id="path42" />
      </g>
      <g
         id="line2d_12">
        <path
           d="M 414.11835,143.01722 V 130.96518"
           clip-path="url(#p2bb27ce660)"
           style="fill:none;stroke:#ffffff;stroke-width:2;stroke-linecap:square"
           id="path43" />
      </g>
      <g
         id="line2d_13">
        <path
           d="m 408.09233,136.9912 h 12.05204"
           clip-path="url(#p2bb27ce660)"
           style="fill:none;stroke:#ffffff;stroke-width:2;stroke-linecap:square"
           id="path44" />
      </g>
      <g
         id="line2d_14">
        <path
           d="M 460.47235,96.663219 V 84.611179"
           clip-path="url(#p2bb27ce660)"
           style="fill:none;stroke:#ffffff;stroke-width:2;stroke-linecap:square"
           id="path45" />
      </g>
      <g
         id="line2d_15">
        <path
           d="m 454.44633,90.637199 h 12.05204"
           clip-path="url(#p2bb27ce660)"
           style="fill:none;stroke:#ffffff;stroke-width:2;stroke-linecap:square"
           id="path46" />
      </g>
      <g
         id="text_1">
        <g
           clip-path="url(#p2bb27ce660)"
           id="g48">
          <!-- ${q}_{0}$ -->
          <g
             transform="matrix(0.1625,0,0,-0.1625,37.300897,48.734176)"
             id="g47">
            <defs
               id="defs46">
              <path
                 id="DejaVuSans-Oblique-71"
                 d="M 2669,525 Q 2438,222 2123,65 1809,-91 1428,-91 897,-91 595,267 294,625 294,1253 q 0,506 186,978 186,472 533,847 225,244 517,375 292,131 614,131 387,0 637,-153 250,-153 363,-462 l 100,525 h 578 L 2888,-1319 H 2309 Z M 891,1338 q 0,-463 193,-705 194,-242 560,-242 544,0 928,520 384,520 384,1264 0,450 -199,689 -198,239 -569,239 -272,0 -504,-127 Q 1453,2850 1281,2606 1100,2350 995,2006 891,1663 891,1338 Z"
                 transform="scale(0.015625)" />
              <path
                 id="DejaVuSans-30"
                 d="m 2034,4250 q -487,0 -733,-480 -245,-479 -245,-1442 0,-959 245,-1439 246,-480 733,-480 491,0 736,480 246,480 246,1439 0,963 -246,1442 -245,480 -736,480 z m 0,500 q 785,0 1199,-621 414,-620 414,-1801 0,-1178 -414,-1799 -414,-620 -1199,-620 -784,0 -1198,620 -414,621 -414,1799 0,1181 414,1801 414,621 1198,621 z"
                 transform="scale(0.015625)" />
            </defs>
            <use
               xlink:href="#DejaVuSans-Oblique-71"
               id="use46" />
            <use
               xlink:href="#DejaVuSans-30"
               transform="matrix(0.7,0,0,0.7,63.476562,-16.40625)"
               id="use47" />
          </g>
        </g>
      </g>
      <g
         id="text_2">
        <g
           clip-path="url(#p2bb27ce660)"
           id="g50">
          <!-- ${q}_{1}$ -->
          <g
             transform="matrix(0.1625,0,0,-0.1625,37.300897,95.088175)"
             id="g49">
            <defs
               id="defs48">
              <path
                 id="DejaVuSans-31"
                 d="M 794,531 H 1825 V 4091 L 703,3866 v 575 l 1116,225 h 631 V 531 H 3481 V 0 H 794 Z"
                 transform="scale(0.015625)" />
            </defs>
            <use
               xlink:href="#DejaVuSans-Oblique-71"
               id="use48" />
            <use
               xlink:href="#DejaVuSans-31"
               transform="matrix(0.7,0,0,0.7,63.476562,-16.40625)"
               id="use49" />
          </g>
        </g>
      </g>
      <g
         id="text_3">
        <g
           clip-path="url(#p2bb27ce660)"
           id="g52">
          <!-- ${q}_{2}$ -->
          <g
             transform="matrix(0.1625,0,0,-0.1625,37.300897,141.44217)"
             id="g51">
            <defs
               id="defs50">
              <path
                 id="DejaVuSans-32"
                 d="M 1228,531 H 3431 V 0 H 469 v 531 q 359,372 979,998 621,627 780,809 303,340 423,576 121,236 121,464 0,372 -261,606 -261,235 -680,235 -297,0 -627,-103 -329,-103 -704,-313 v 638 q 381,153 712,231 332,78 607,78 725,0 1156,-363 431,-362 431,-968 0,-288 -108,-546 -107,-257 -392,-607 -78,-91 -497,-524 Q 1991,1309 1228,531 Z"
                 transform="scale(0.015625)" />
            </defs>
            <use
               xlink:href="#DejaVuSans-Oblique-71"
               id="use50" />
            <use
               xlink:href="#DejaVuSans-32"
               transform="matrix(0.7,0,0,0.7,63.476562,-16.40625)"
               id="use51" />
          </g>
        </g>
      </g>
      <g
         id="text_4">
        <g
           clip-path="url(#p2bb27ce660)"
           id="g56">
          <!-- θ[0] -->
          <g
             transform="matrix(0.08,0,0,-0.08,81.526606,55.529729)"
             id="g55">
            <defs
               id="defs52">
              <path
                 id="DejaVuSans-3b8"
                 d="M 2953,2219 H 963 q 46,-935 262,-1331 269,-488 734,-488 469,0 729,491 228,431 265,1328 z m -9,531 q -88,888 -256,1200 -269,494 -729,494 -478,0 -731,-488 -200,-393 -259,-1206 z m -985,2163 q 750,0 1179,-663 428,-659 428,-1828 0,-1166 -428,-1828 -429,-666 -1179,-666 -753,0 -1178,666 -428,662 -428,1828 0,1169 428,1828 425,663 1178,663 z"
                 transform="scale(0.015625)" />
              <path
                 id="DejaVuSans-5b"
                 d="M 550,4863 H 1875 V 4416 H 1125 V -397 h 750 V -844 H 550 Z"
                 transform="scale(0.015625)" />
              <path
                 id="DejaVuSans-5d"
                 d="M 1947,4863 V -844 H 622 v 447 h 747 V 4416 H 622 v 447 z"
                 transform="scale(0.015625)" />
            </defs>
            <use
               xlink:href="#DejaVuSans-3b8"
               id="use52" />
            <use
               xlink:href="#DejaVuSans-5b"
               x="61.181641"
               id="use53" />
            <use
               xlink:href="#DejaVuSans-30"
               x="100.19531"
               id="use54" />
            <use
               xlink:href="#DejaVuSans-5d"
               x="163.81836"
               id="use55" />
          </g>
        </g>
      </g>
      <g
         id="text_5">
        <g
           clip-path="url(#p2bb27ce660)"
           id="g58">
          <!-- $\mathrm{R_Y}$ -->
          <g
             transform="matrix(0.13,0,0,-0.13,82.100356,43.350872)"
             id="g57">
            <defs
               id="defs56">
              <path
                 id="DejaVuSans-52"
                 d="m 2841,2188 q 203,-69 395,-294 192,-225 386,-619 L 4263,0 h -679 l -596,1197 q -232,469 -449,622 -217,153 -592,153 H 1259 V 0 H 628 v 4666 h 1425 q 800,0 1194,-335 394,-334 394,-1009 0,-441 -205,-732 -205,-290 -595,-402 z M 1259,4147 V 2491 h 794 q 456,0 689,211 233,211 233,620 0,409 -233,617 -233,208 -689,208 z"
                 transform="scale(0.015625)" />
              <path
                 id="DejaVuSans-59"
                 d="M -13,4666 H 666 L 1959,2747 3244,4666 h 678 L 2272,2222 V 0 h -634 v 2222 z"
                 transform="scale(0.015625)" />
            </defs>
            <use
               xlink:href="#DejaVuSans-52"
               transform="translate(0,0.09375)"
               id="use56" />
            <use
               xlink:href="#DejaVuSans-59"
               transform="matrix(0.7,0,0,0.7,70.439453,-16.3125)"
               id="use57" />
          </g>
        </g>
      </g>
      <g
         id="text_6">
        <g
           clip-path="url(#p2bb27ce660)"
           id="g62">
          <!-- θ[1] -->
          <g
             transform="matrix(0.08,0,0,-0.08,81.526606,101.88373)"
             id="g61">
            <use
               xlink:href="#DejaVuSans-3b8"
               id="use58" />
            <use
               xlink:href="#DejaVuSans-5b"
               x="61.181641"
               id="use59" />
            <use
               xlink:href="#DejaVuSans-31"
               x="100.19531"
               id="use60" />
            <use
               xlink:href="#DejaVuSans-5d"
               x="163.81836"
               id="use61" />
          </g>
        </g>
      </g>
      <g
         id="text_7">
        <g
           clip-path="url(#p2bb27ce660)"
           id="g64">
          <!-- $\mathrm{R_Y}$ -->
          <g
             transform="matrix(0.13,0,0,-0.13,82.100356,89.704871)"
             id="g63">
            <use
               xlink:href="#DejaVuSans-52"
               transform="translate(0,0.09375)"
               id="use62" />
            <use
               xlink:href="#DejaVuSans-59"
               transform="matrix(0.7,0,0,0.7,70.439453,-16.3125)"
               id="use63" />
          </g>
        </g>
      </g>
      <g
         id="text_8">
        <g
           clip-path="url(#p2bb27ce660)"
           id="g68">
          <!-- θ[2] -->
          <g
             transform="matrix(0.08,0,0,-0.08,81.526606,148.23773)"
             id="g67">
            <use
               xlink:href="#DejaVuSans-3b8"
               id="use64" />
            <use
               xlink:href="#DejaVuSans-5b"
               x="61.181641"
               id="use65" />
            <use
               xlink:href="#DejaVuSans-32"
               x="100.19531"
               id="use66" />
            <use
               xlink:href="#DejaVuSans-5d"
               x="163.81836"
               id="use67" />
          </g>
        </g>
      </g>
      <g
         id="text_9">
        <g
           clip-path="url(#p2bb27ce660)"
           id="g70">
          <!-- $\mathrm{R_Y}$ -->
          <g
             transform="matrix(0.13,0,0,-0.13,82.100356,136.05887)"
             id="g69">
            <use
               xlink:href="#DejaVuSans-52"
               transform="translate(0,0.09375)"
               id="use68" />
            <use
               xlink:href="#DejaVuSans-59"
               transform="matrix(0.7,0,0,0.7,70.439453,-16.3125)"
               id="use69" />
          </g>
        </g>
      </g>
      <g
         id="line2d_16">
        <path
           d="M 135.99436,21.1062 V 67.460199"
           clip-path="url(#p2bb27ce660)"
           style="fill:none;stroke:#000000;stroke-dasharray:3.7, 1.6;stroke-dashoffset:0"
           id="path70" />
      </g>
      <g
         id="line2d_17">
        <path
           d="M 135.99436,67.460199 V 113.8142"
           clip-path="url(#p2bb27ce660)"
           style="fill:none;stroke:#000000;stroke-dasharray:3.7, 1.6;stroke-dashoffset:0"
           id="path71" />
      </g>
      <g
         id="line2d_18">
        <path
           d="m 135.99436,113.8142 v 46.354"
           clip-path="url(#p2bb27ce660)"
           style="fill:none;stroke:#000000;stroke-dasharray:3.7, 1.6;stroke-dashoffset:0"
           id="path72" />
      </g>
      <g
         id="line2d_19">
        <path
           d="M 275.05635,21.1062 V 67.460199"
           clip-path="url(#p2bb27ce660)"
           style="fill:none;stroke:#000000;stroke-dasharray:3.7, 1.6;stroke-dashoffset:0"
           id="path73" />
      </g>
      <g
         id="line2d_20">
        <path
           d="M 275.05635,67.460199 V 113.8142"
           clip-path="url(#p2bb27ce660)"
           style="fill:none;stroke:#000000;stroke-dasharray:3.7, 1.6;stroke-dashoffset:0"
           id="path74" />
      </g>
      <g
         id="line2d_21">
        <path
           d="m 275.05635,113.8142 v 46.354"
           clip-path="url(#p2bb27ce660)"
           style="fill:none;stroke:#000000;stroke-dasharray:3.7, 1.6;stroke-dashoffset:0"
           id="path75" />
      </g>
      <g
         id="text_10">
        <g
           clip-path="url(#p2bb27ce660)"
           id="g79">
          <!-- θ[3] -->
          <g
             transform="matrix(0.08,0,0,-0.08,313.2966,55.529729)"
             id="g78">
            <defs
               id="defs75">
              <path
                 id="DejaVuSans-33"
                 d="m 2597,2516 q 453,-97 707,-404 255,-306 255,-756 0,-690 -475,-1069 -475,-378 -1350,-378 -293,0 -604,58 -311,58 -642,174 v 609 q 262,-153 574,-231 313,-78 654,-78 593,0 904,234 311,234 311,681 0,413 -289,645 -289,233 -804,233 h -544 v 519 h 569 q 465,0 712,186 247,186 247,536 0,359 -255,551 -254,193 -729,193 -260,0 -557,-57 -297,-56 -653,-174 v 562 q 360,100 674,150 314,50 592,50 719,0 1137,-327 419,-326 419,-882 0,-388 -222,-655 -222,-267 -631,-370 z"
                 transform="scale(0.015625)" />
            </defs>
            <use
               xlink:href="#DejaVuSans-3b8"
               id="use75" />
            <use
               xlink:href="#DejaVuSans-5b"
               x="61.181641"
               id="use76" />
            <use
               xlink:href="#DejaVuSans-33"
               x="100.19531"
               id="use77" />
            <use
               xlink:href="#DejaVuSans-5d"
               x="163.81836"
               id="use78" />
          </g>
        </g>
      </g>
      <g
         id="text_11">
        <g
           clip-path="url(#p2bb27ce660)"
           id="g81">
          <!-- $\mathrm{R_Y}$ -->
          <g
             transform="matrix(0.13,0,0,-0.13,313.87035,43.350872)"
             id="g80">
            <use
               xlink:href="#DejaVuSans-52"
               transform="translate(0,0.09375)"
               id="use79" />
            <use
               xlink:href="#DejaVuSans-59"
               transform="matrix(0.7,0,0,0.7,70.439453,-16.3125)"
               id="use80" />
          </g>
        </g>
      </g>
      <g
         id="text_12">
        <g
           clip-path="url(#p2bb27ce660)"
           id="g85">
          <!-- θ[4] -->
          <g
             transform="matrix(0.08,0,0,-0.08,313.2966,101.88373)"
             id="g84">
            <defs
               id="defs81">
              <path
                 id="DejaVuSans-34"
                 d="M 2419,4116 825,1625 h 1594 z m -166,550 h 794 V 1625 h 666 V 1100 H 3047 V 0 H 2419 V 1100 H 313 v 609 z"
                 transform="scale(0.015625)" />
            </defs>
            <use
               xlink:href="#DejaVuSans-3b8"
               id="use81" />
            <use
               xlink:href="#DejaVuSans-5b"
               x="61.181641"
               id="use82" />
            <use
               xlink:href="#DejaVuSans-34"
               x="100.19531"
               id="use83" />
            <use
               xlink:href="#DejaVuSans-5d"
               x="163.81836"
               id="use84" />
          </g>
        </g>
      </g>
      <g
         id="text_13">
        <g
           clip-path="url(#p2bb27ce660)"
           id="g87">
          <!-- $\mathrm{R_Y}$ -->
          <g
             transform="matrix(0.13,0,0,-0.13,313.87035,89.704871)"
             id="g86">
            <use
               xlink:href="#DejaVuSans-52"
               transform="translate(0,0.09375)"
               id="use85" />
            <use
               xlink:href="#DejaVuSans-59"
               transform="matrix(0.7,0,0,0.7,70.439453,-16.3125)"
               id="use86" />
          </g>
        </g>
      </g>
      <g
         id="text_14">
        <g
           clip-path="url(#p2bb27ce660)"
           id="g91">
          <!-- θ[5] -->
          <g
             transform="matrix(0.08,0,0,-0.08,313.2966,148.23773)"
             id="g90">
            <defs
               id="defs87">
              <path
                 id="DejaVuSans-35"
                 d="M 691,4666 H 3169 V 4134 H 1269 V 2991 q 137,47 274,70 138,23 276,23 781,0 1237,-428 457,-428 457,-1159 Q 3513,744 3044,326 2575,-91 1722,-91 1428,-91 1123,-41 819,9 494,109 v 635 q 281,-153 581,-228 300,-75 634,-75 541,0 856,284 316,284 316,772 0,487 -316,771 -315,285 -856,285 -253,0 -505,-56 -251,-56 -513,-175 z"
                 transform="scale(0.015625)" />
            </defs>
            <use
               xlink:href="#DejaVuSans-3b8"
               id="use87" />
            <use
               xlink:href="#DejaVuSans-5b"
               x="61.181641"
               id="use88" />
            <use
               xlink:href="#DejaVuSans-35"
               x="100.19531"
               id="use89" />
            <use
               xlink:href="#DejaVuSans-5d"
               x="163.81836"
               id="use90" />
          </g>
        </g>
      </g>
      <g
         id="text_15">
        <g
           clip-path="url(#p2bb27ce660)"
           id="g93">
          <!-- $\mathrm{R_Y}$ -->
          <g
             transform="matrix(0.13,0,0,-0.13,313.87035,136.05887)"
             id="g92">
            <use
               xlink:href="#DejaVuSans-52"
               transform="translate(0,0.09375)"
               id="use91" />
            <use
               xlink:href="#DejaVuSans-59"
               transform="matrix(0.7,0,0,0.7,70.439453,-16.3125)"
               id="use92" />
          </g>
        </g>
      </g>
      <g
         id="line2d_22">
        <path
           d="M 367.76435,21.1062 V 67.460199"
           clip-path="url(#p2bb27ce660)"
           style="fill:none;stroke:#000000;stroke-dasharray:3.7, 1.6;stroke-dashoffset:0"
           id="path93" />
      </g>
      <g
         id="line2d_23">
        <path
           d="M 367.76435,67.460199 V 113.8142"
           clip-path="url(#p2bb27ce660)"
           style="fill:none;stroke:#000000;stroke-dasharray:3.7, 1.6;stroke-dashoffset:0"
           id="path94" />
      </g>
      <g
         id="line2d_24">
        <path
           d="m 367.76435,113.8142 v 46.354"
           clip-path="url(#p2bb27ce660)"
           style="fill:none;stroke:#000000;stroke-dasharray:3.7, 1.6;stroke-dashoffset:0"
           id="path95" />
      </g>
      <g
         id="line2d_25">
        <path
           d="M 506.82635,21.1062 V 67.460199"
           clip-path="url(#p2bb27ce660)"
           style="fill:none;stroke:#000000;stroke-dasharray:3.7, 1.6;stroke-dashoffset:0"
           id="path96" />
      </g>
      <g
         id="line2d_26">
        <path
           d="M 506.82635,67.460199 V 113.8142"
           clip-path="url(#p2bb27ce660)"
           style="fill:none;stroke:#000000;stroke-dasharray:3.7, 1.6;stroke-dashoffset:0"
           id="path97" />
      </g>
      <g
         id="line2d_27">
        <path
           d="m 506.82635,113.8142 v 46.354"
           clip-path="url(#p2bb27ce660)"
           style="fill:none;stroke:#000000;stroke-dasharray:3.7, 1.6;stroke-dashoffset:0"
           id="path98" />
      </g>
      <g
         id="text_16">
        <g
           clip-path="url(#p2bb27ce660)"
           id="g102">
          <!-- θ[6] -->
          <g
             transform="matrix(0.08,0,0,-0.08,545.0666,55.529729)"
             id="g101">
            <defs
               id="defs98">
              <path
                 id="DejaVuSans-36"
                 d="m 2113,2584 q -425,0 -674,-291 -248,-290 -248,-796 0,-503 248,-796 249,-292 674,-292 425,0 673,292 248,293 248,796 0,506 -248,796 -248,291 -673,291 z m 1253,1979 v -575 q -238,112 -480,171 -242,60 -480,60 -625,0 -955,-422 -329,-422 -376,-1275 184,272 462,417 279,145 613,145 703,0 1111,-427 408,-426 408,-1160 0,-719 -425,-1154 -425,-434 -1131,-434 -810,0 -1238,620 -428,621 -428,1799 0,1106 525,1764 525,658 1409,658 238,0 480,-47 242,-47 505,-140 z"
                 transform="scale(0.015625)" />
            </defs>
            <use
               xlink:href="#DejaVuSans-3b8"
               id="use98" />
            <use
               xlink:href="#DejaVuSans-5b"
               x="61.181641"
               id="use99" />
            <use
               xlink:href="#DejaVuSans-36"
               x="100.19531"
               id="use100" />
            <use
               xlink:href="#DejaVuSans-5d"
               x="163.81836"
               id="use101" />
          </g>
        </g>
      </g>
      <g
         id="text_17">
        <g
           clip-path="url(#p2bb27ce660)"
           id="g104">
          <!-- $\mathrm{R_Y}$ -->
          <g
             transform="matrix(0.13,0,0,-0.13,545.64035,43.350872)"
             id="g103">
            <use
               xlink:href="#DejaVuSans-52"
               transform="translate(0,0.09375)"
               id="use102" />
            <use
               xlink:href="#DejaVuSans-59"
               transform="matrix(0.7,0,0,0.7,70.439453,-16.3125)"
               id="use103" />
          </g>
        </g>
      </g>
      <g
         id="text_18">
        <g
           clip-path="url(#p2bb27ce660)"
           id="g108">
          <!-- θ[7] -->
          <g
             transform="matrix(0.08,0,0,-0.08,545.0666,101.88373)"
             id="g107">
            <defs
               id="defs104">
              <path
                 id="DejaVuSans-37"
                 d="M 525,4666 H 3525 V 4397 L 1831,0 H 1172 L 2766,4134 H 525 Z"
                 transform="scale(0.015625)" />
            </defs>
            <use
               xlink:href="#DejaVuSans-3b8"
               id="use104" />
            <use
               xlink:href="#DejaVuSans-5b"
               x="61.181641"
               id="use105" />
            <use
               xlink:href="#DejaVuSans-37"
               x="100.19531"
               id="use106" />
            <use
               xlink:href="#DejaVuSans-5d"
               x="163.81836"
               id="use107" />
          </g>
        </g>
      </g>
      <g
         id="text_19">
        <g
           clip-path="url(#p2bb27ce660)"
           id="g110">
          <!-- $\mathrm{R_Y}$ -->
          <g
             transform="matrix(0.13,0,0,-0.13,545.64035,89.704871)"
             id="g109">
            <use
               xlink:href="#DejaVuSans-52"
               transform="translate(0,0.09375)"
               id="use108" />
            <use
               xlink:href="#DejaVuSans-59"
               transform="matrix(0.7,0,0,0.7,70.439453,-16.3125)"
               id="use109" />
          </g>
        </g>
      </g>
      <g
         id="text_20">
        <g
           clip-path="url(#p2bb27ce660)"
           id="g114">
          <!-- θ[8] -->
          <g
             transform="matrix(0.08,0,0,-0.08,545.0666,148.23773)"
             id="g113">
            <defs
               id="defs110">
              <path
                 id="DejaVuSans-38"
                 d="m 2034,2216 q -450,0 -708,-241 -257,-241 -257,-662 0,-422 257,-663 258,-241 708,-241 450,0 709,242 260,243 260,662 0,421 -258,662 -257,241 -711,241 z m -631,268 q -406,100 -633,378 -226,279 -226,679 0,559 398,884 399,325 1092,325 697,0 1094,-325 397,-325 397,-884 0,-400 -227,-679 -226,-278 -629,-378 456,-106 710,-416 255,-309 255,-755 Q 3634,634 3220,271 2806,-91 2034,-91 1263,-91 848,271 434,634 434,1313 q 0,446 256,755 257,310 713,416 z m -231,997 q 0,-362 226,-565 227,-203 636,-203 407,0 636,203 230,203 230,565 0,363 -230,566 -229,203 -636,203 -409,0 -636,-203 -226,-203 -226,-566 z"
                 transform="scale(0.015625)" />
            </defs>
            <use
               xlink:href="#DejaVuSans-3b8"
               id="use110" />
            <use
               xlink:href="#DejaVuSans-5b"
               x="61.181641"
               id="use111" />
            <use
               xlink:href="#DejaVuSans-38"
               x="100.19531"
               id="use112" />
            <use
               xlink:href="#DejaVuSans-5d"
               x="163.81836"
               id="use113" />
          </g>
        </g>
      </g>
      <g
         id="text_21">
        <g
           clip-path="url(#p2bb27ce660)"
           id="g116">
          <!-- $\mathrm{R_Y}$ -->
          <g
             transform="matrix(0.13,0,0,-0.13,545.64035,136.05887)"
             id="g115">
            <use
               xlink:href="#DejaVuSans-52"
               transform="translate(0,0.09375)"
               id="use114" />
            <use
               xlink:href="#DejaVuSans-59"
               transform="matrix(0.7,0,0,0.7,70.439453,-16.3125)"
               id="use115" />
          </g>
        </g>
      </g>
    </g>
  </g>
  <defs
     id="defs116">
    <clipPath
       id="p2bb27ce660">
      <rect
         x="7.1999998"
         y="7.1999998"
         width="576.57397"
         height="157.60359"
         id="rect116" />
    </clipPath>
  </defs>
</svg>
