<?xml version="1.0" encoding="UTF-8" standalone="no"?>
<!-- Created with Inkscape (http://www.inkscape.org/) -->

<svg
   width="190.20148mm"
   height="137.18042mm"
   viewBox="0 0 190.20147 137.18042"
   version="1.1"
   id="svg1"
   inkscape:version="1.3.2 (091e20e, 2023-11-25, custom)"
   sodipodi:docname="Estimate_optimization_method.svg"
   xmlns:inkscape="http://www.inkscape.org/namespaces/inkscape"
   xmlns:sodipodi="http://sodipodi.sourceforge.net/DTD/sodipodi-0.dtd"
   xmlns:xlink="http://www.w3.org/1999/xlink"
   xmlns="http://www.w3.org/2000/svg"
   xmlns:svg="http://www.w3.org/2000/svg">
  <sodipodi:namedview
     id="namedview1"
     pagecolor="#ffffff"
     bordercolor="#000000"
     borderopacity="0.25"
     inkscape:showpageshadow="2"
     inkscape:pageopacity="0.0"
     inkscape:pagecheckerboard="0"
     inkscape:deskcolor="#d1d1d1"
     inkscape:document-units="mm"
     inkscape:zoom="0.64"
     inkscape:cx="114.0625"
     inkscape:cy="236.71875"
     inkscape:window-width="1366"
     inkscape:window-height="745"
     inkscape:window-x="-8"
     inkscape:window-y="-8"
     inkscape:window-maximized="1"
     inkscape:current-layer="layer1">
    <inkscape:page
       x="0"
       y="0"
       width="190.20148"
       height="137.18042"
       id="page1"
       margin="0 0 64.377045"
       bleed="0" />
  </sodipodi:namedview>
  <defs
     id="defs1">
    <linearGradient
       id="linearGradient129"
       inkscape:collect="always">
      <stop
         style="stop-color:#269700;stop-opacity:1;"
         offset="0"
         id="stop128" />
      <stop
         style="stop-color:#ffffff;stop-opacity:1;"
         offset="1"
         id="stop129" />
    </linearGradient>
    <linearGradient
       id="linearGradient123"
       inkscape:collect="always">
      <stop
         style="stop-color:#710097;stop-opacity:1;"
         offset="0"
         id="stop122" />
      <stop
         style="stop-color:#ffffff;stop-opacity:1;"
         offset="1"
         id="stop123" />
    </linearGradient>
    <linearGradient
       id="linearGradient119"
       inkscape:collect="always">
      <stop
         style="stop-color:#0000ff;stop-opacity:1;"
         offset="0"
         id="stop118" />
      <stop
         style="stop-color:#ffffff;stop-opacity:1;"
         offset="1"
         id="stop119" />
    </linearGradient>
    <linearGradient
       id="linearGradient117"
       inkscape:collect="always">
      <stop
         style="stop-color:#0000ff;stop-opacity:1;"
         offset="0"
         id="stop116" />
      <stop
         style="stop-color:#ffffff;stop-opacity:1;"
         offset="1"
         id="stop117" />
    </linearGradient>
    <linearGradient
       id="linearGradient115"
       inkscape:collect="always">
      <stop
         style="stop-color:#0000ff;stop-opacity:1;"
         offset="0"
         id="stop114" />
      <stop
         style="stop-color:#ffffff;stop-opacity:1;"
         offset="1"
         id="stop115" />
    </linearGradient>
    <linearGradient
       id="linearGradient111"
       inkscape:collect="always">
      <stop
         style="stop-color:#fd0600;stop-opacity:1;"
         offset="0"
         id="stop110" />
      <stop
         style="stop-color:#ffffff;stop-opacity:1;"
         offset="1"
         id="stop111" />
    </linearGradient>
    <linearGradient
       id="linearGradient105"
       inkscape:collect="always">
      <stop
         style="stop-color:#0000ff;stop-opacity:1;"
         offset="0"
         id="stop104" />
      <stop
         style="stop-color:#ffffff;stop-opacity:1;"
         offset="1"
         id="stop105" />
    </linearGradient>
    <linearGradient
       id="swatch80"
       inkscape:swatch="solid">
      <stop
         style="stop-color:#0000ff;stop-opacity:1;"
         offset="0"
         id="stop80" />
    </linearGradient>
    <marker
       style="overflow:visible"
       id="ArrowTriangleStylized"
       refX="0"
       refY="0"
       orient="auto-start-reverse"
       inkscape:stockid="Stylized triangle arrow"
       markerWidth="1"
       markerHeight="1"
       viewBox="0 0 1 1"
       inkscape:isstock="true"
       inkscape:collect="always"
       preserveAspectRatio="xMidYMid">
      <path
         transform="scale(0.5)"
         style="fill:context-stroke;fill-rule:evenodd;stroke:context-stroke;stroke-width:1pt"
         d="m 6,0 c -3,1 -7,3 -9,5 0,0 0,-4 2,-5 -2,-1 -2,-5 -2,-5 2,2 6,4 9,5 z"
         id="path4" />
    </marker>
    <marker
       style="overflow:visible"
       id="ArrowTriangleStylized-1"
       refX="0"
       refY="0"
       orient="auto-start-reverse"
       inkscape:stockid="Stylized triangle arrow"
       markerWidth="1"
       markerHeight="1"
       viewBox="0 0 1 1"
       inkscape:isstock="true"
       inkscape:collect="always"
       preserveAspectRatio="xMidYMid">
      <path
         transform="scale(0.5)"
         style="fill:context-stroke;fill-rule:evenodd;stroke:context-stroke;stroke-width:1pt"
         d="m 6,0 c -3,1 -7,3 -9,5 0,0 0,-4 2,-5 -2,-1 -2,-5 -2,-5 2,2 6,4 9,5 z"
         id="path4-1" />
    </marker>
    <linearGradient
       inkscape:collect="always"
       xlink:href="#linearGradient117"
       id="linearGradient102"
       x1="99.055283"
       y1="70.708832"
       x2="108.07102"
       y2="70.708832"
       gradientUnits="userSpaceOnUse"
       gradientTransform="translate(6.2305522,-1.3405448)" />
    <linearGradient
       inkscape:collect="always"
       xlink:href="#linearGradient119"
       id="linearGradient106"
       gradientUnits="userSpaceOnUse"
       x1="99.055283"
       y1="70.708832"
       x2="108.07102"
       y2="70.708832"
       gradientTransform="translate(-10.333866,8.6739189)" />
    <linearGradient
       inkscape:collect="always"
       xlink:href="#linearGradient115"
       id="linearGradient107"
       gradientUnits="userSpaceOnUse"
       gradientTransform="translate(24.294696,-7.7155564)"
       x1="99.055283"
       y1="70.708832"
       x2="108.07102"
       y2="70.708832" />
    <linearGradient
       inkscape:collect="always"
       xlink:href="#linearGradient105"
       id="linearGradient108"
       gradientUnits="userSpaceOnUse"
       gradientTransform="matrix(0.50876337,0,0,0.50876337,35.049742,-35.816235)"
       x1="99.055283"
       y1="70.708832"
       x2="108.07102"
       y2="70.708832" />
    <linearGradient
       inkscape:collect="always"
       xlink:href="#linearGradient111"
       id="linearGradient110"
       gradientUnits="userSpaceOnUse"
       gradientTransform="translate(41.892762,17.520215)"
       x1="99.055283"
       y1="70.708832"
       x2="108.07102"
       y2="70.708832" />
    <linearGradient
       inkscape:collect="always"
       xlink:href="#linearGradient111"
       id="linearGradient120"
       gradientUnits="userSpaceOnUse"
       gradientTransform="translate(47.075454,12.596684)"
       x1="99.055283"
       y1="70.708832"
       x2="108.07102"
       y2="70.708832" />
    <linearGradient
       inkscape:collect="always"
       xlink:href="#linearGradient111"
       id="linearGradient121"
       gradientUnits="userSpaceOnUse"
       gradientTransform="translate(52.669015,20.026049)"
       x1="99.055283"
       y1="70.708832"
       x2="108.07102"
       y2="70.708832" />
    <linearGradient
       inkscape:collect="always"
       xlink:href="#linearGradient123"
       id="linearGradient122"
       gradientUnits="userSpaceOnUse"
       gradientTransform="translate(60.002787,14.688399)"
       x1="99.055283"
       y1="70.708832"
       x2="108.07102"
       y2="70.708832" />
    <linearGradient
       inkscape:collect="always"
       xlink:href="#linearGradient129"
       id="linearGradient124"
       gradientUnits="userSpaceOnUse"
       gradientTransform="translate(65.235688,9.8596262)"
       x1="99.055283"
       y1="70.708832"
       x2="108.07102"
       y2="70.708832" />
    <linearGradient
       inkscape:collect="always"
       xlink:href="#linearGradient123"
       id="linearGradient126"
       gradientUnits="userSpaceOnUse"
       gradientTransform="translate(84.432867,-24.309449)"
       x1="99.055283"
       y1="70.708832"
       x2="108.07102"
       y2="70.708832" />
    <linearGradient
       inkscape:collect="always"
       xlink:href="#linearGradient123"
       id="linearGradient127"
       gradientUnits="userSpaceOnUse"
       gradientTransform="translate(84.432875,-8.7324263)"
       x1="99.055283"
       y1="70.708832"
       x2="108.07102"
       y2="70.708832" />
    <linearGradient
       inkscape:collect="always"
       xlink:href="#linearGradient129"
       id="linearGradient130"
       gradientUnits="userSpaceOnUse"
       gradientTransform="translate(119.98977,-44.952405)"
       x1="99.055283"
       y1="70.708832"
       x2="108.07102"
       y2="70.708832" />
    <linearGradient
       inkscape:collect="always"
       xlink:href="#linearGradient129"
       id="linearGradient131"
       gradientUnits="userSpaceOnUse"
       gradientTransform="translate(119.98976,-25.451874)"
       x1="99.055283"
       y1="70.708832"
       x2="108.07102"
       y2="70.708832" />
    <linearGradient
       inkscape:collect="always"
       xlink:href="#linearGradient129"
       id="linearGradient137"
       gradientUnits="userSpaceOnUse"
       gradientTransform="matrix(0.50880909,0,0,0.50880909,35.045189,-25.487246)"
       x1="99.055283"
       y1="70.708832"
       x2="108.07102"
       y2="70.708832" />
    <linearGradient
       inkscape:collect="always"
       xlink:href="#linearGradient123"
       id="linearGradient138"
       gradientUnits="userSpaceOnUse"
       gradientTransform="matrix(0.50880913,0,0,0.50880913,35.045184,-14.587269)"
       x1="99.055283"
       y1="70.708832"
       x2="108.07102"
       y2="70.708832" />
    <linearGradient
       inkscape:collect="always"
       xlink:href="#linearGradient111"
       id="linearGradient139"
       gradientUnits="userSpaceOnUse"
       gradientTransform="matrix(0.50880913,0,0,0.50880913,35.045193,-3.1195432)"
       x1="99.055283"
       y1="70.708832"
       x2="108.07102"
       y2="70.708832" />
  </defs>
  <g
     inkscape:label="Layer 1"
     inkscape:groupmode="layer"
     id="layer1"
     transform="translate(-61.1397,14.025111)">
    <rect
       style="fill:url(#linearGradient124);fill-opacity:1;stroke:#000000;stroke-width:0.6;stroke-linejoin:round;stroke-dasharray:4.8, 1.2, 0.6, 1.2;stroke-dashoffset:0;stroke-opacity:1"
       id="rect1-7-0-6-4-0-1-0"
       width="8.4157295"
       height="8.4157295"
       x="164.59094"
       y="76.360596"
       ry="0" />
    <rect
       style="fill:url(#linearGradient130);fill-opacity:1;stroke:#000000;stroke-width:0.6;stroke-linejoin:round;stroke-dasharray:1.8;stroke-dashoffset:0;stroke-opacity:1"
       id="rect1-7-0-6-4-0-1-0-0"
       width="8.4157295"
       height="8.4157295"
       x="219.34505"
       y="21.548565"
       ry="0" />
    <rect
       style="fill:url(#linearGradient131);fill-opacity:1;stroke:#000000;stroke-width:0.6;stroke-linejoin:round;stroke-dasharray:none;stroke-dashoffset:0;stroke-opacity:1"
       id="rect1-7-0-6-4-0-1-0-0-2"
       width="8.4157295"
       height="8.4157295"
       x="219.34505"
       y="41.049095"
       ry="0" />
    <rect
       style="fill:url(#linearGradient121);fill-opacity:1;stroke:#000000;stroke-width:0.6;stroke-linejoin:round;stroke-dasharray:4.8, 1.2, 0.6, 1.2;stroke-dashoffset:0;stroke-opacity:1"
       id="rect1-7-0-6-4-0-9"
       width="8.4157295"
       height="8.4157295"
       x="152.02426"
       y="86.527023"
       ry="0" />
    <rect
       style="fill:url(#linearGradient102);stroke:#000000;stroke-width:0.6;stroke-linejoin:round;stroke-dasharray:none;stroke-dashoffset:0;stroke-opacity:1"
       id="rect1-7"
       width="8.4157295"
       height="8.4157295"
       x="105.58584"
       y="65.160431"
       ry="0" />
    <rect
       style="fill:url(#linearGradient106);fill-opacity:1;stroke:#000000;stroke-width:0.6;stroke-linejoin:round;stroke-dasharray:4.80000019,1.20000005,0.60000003,1.20000005;stroke-dashoffset:0;stroke-opacity:1"
       id="rect1-7-0"
       width="8.4157295"
       height="8.4157295"
       x="89.021416"
       y="75.174889"
       ry="0" />
    <rect
       style="fill:url(#linearGradient107);fill-opacity:1;stroke:#000000;stroke-width:0.6;stroke-linejoin:round;stroke-dasharray:1.8;stroke-dashoffset:0;stroke-opacity:1"
       id="rect1-7-0-6"
       width="8.4157295"
       height="8.4157295"
       x="123.64998"
       y="58.785416"
       ry="0" />
    <rect
       style="opacity:1;fill:url(#linearGradient110);fill-opacity:1;stroke:#000000;stroke-width:0.6;stroke-linejoin:round;stroke-dasharray:none;stroke-dashoffset:0;stroke-opacity:1"
       id="rect1-7-0-6-4"
       width="8.4157295"
       height="8.4157295"
       x="141.24803"
       y="84.021187"
       ry="0" />
    <rect
       style="fill:url(#linearGradient120);fill-opacity:1;stroke:#000000;stroke-width:0.6;stroke-linejoin:round;stroke-dasharray:1.8;stroke-dashoffset:0;stroke-opacity:1"
       id="rect1-7-0-6-4-0"
       width="8.4157295"
       height="8.4157295"
       x="146.43074"
       y="79.097656"
       ry="0" />
    <rect
       style="fill:url(#linearGradient122);fill-opacity:1;stroke:#000000;stroke-width:0.6;stroke-linejoin:round;stroke-dasharray:4.8, 1.2, 0.6, 1.2;stroke-dashoffset:0;stroke-opacity:1"
       id="rect1-7-0-6-4-0-1"
       width="8.4157295"
       height="8.4157295"
       x="159.35806"
       y="81.189369"
       ry="0" />
    <rect
       style="fill:url(#linearGradient126);fill-opacity:1;stroke:#000000;stroke-width:0.6;stroke-linejoin:round;stroke-dasharray:1.8;stroke-dashoffset:0;stroke-opacity:1"
       id="rect1-7-0-6-4-0-1-8"
       width="8.4157295"
       height="8.4157295"
       x="183.78819"
       y="42.191521"
       ry="0" />
    <rect
       style="fill:url(#linearGradient127);fill-opacity:1;stroke:#000000;stroke-width:0.6;stroke-linejoin:round;stroke-dasharray:none;stroke-dashoffset:0;stroke-opacity:1"
       id="rect1-7-0-6-4-0-1-7"
       width="8.4157295"
       height="8.4157295"
       x="183.78819"
       y="57.768547"
       ry="0" />
    <path
       style="fill:#0000ff;stroke:#000000;stroke-width:0.513208;stroke-linejoin:round;stroke-dasharray:none;stroke-dashoffset:0;stroke-opacity:1;marker-end:url(#ArrowTriangleStylized)"
       d="M 77.562226,107.71182 V -9.1266785"
       id="path2" />
    <path
       style="fill:#0000ff;stroke:#000000;stroke-width:0.612257;stroke-linejoin:round;stroke-dasharray:none;stroke-dashoffset:0;stroke-opacity:1;marker-end:url(#ArrowTriangleStylized-1)"
       d="M 77.739366,107.40583 H 244.02979"
       id="path2-1" />
    <rect
       style="fill:url(#linearGradient108);fill-opacity:1;stroke:#dbdbdb;stroke-width:0;stroke-linejoin:round;stroke-dasharray:none;stroke-dashoffset:0;stroke-opacity:1"
       id="rect1-7-0-6-6"
       width="4.2816148"
       height="4.2816148"
       x="85.598068"
       y="-1.9829758"
       ry="0" />
    <rect
       style="fill:url(#linearGradient137);fill-opacity:1;stroke:#000000;stroke-width:0;stroke-linejoin:round;stroke-dasharray:none;stroke-dashoffset:0;stroke-opacity:1"
       id="rect1-7-0-6-4-0-1-0-6"
       width="4.2820001"
       height="4.2820001"
       x="85.598068"
       y="8.3490562"
       ry="0" />
    <rect
       style="fill:url(#linearGradient138);fill-opacity:1;stroke:#000000;stroke-width:0;stroke-linejoin:round;stroke-dasharray:none;stroke-dashoffset:0;stroke-opacity:1"
       id="rect1-7-0-6-4-0-1-8-4"
       width="4.2820001"
       height="4.2820001"
       x="85.598068"
       y="19.249033"
       ry="0" />
    <rect
       style="fill:url(#linearGradient139);fill-opacity:1;stroke:#000000;stroke-width:0;stroke-linejoin:round;stroke-dasharray:none;stroke-dashoffset:0;stroke-opacity:1"
       id="rect1-7-0-6-4-0-0"
       width="4.2820001"
       height="4.2820001"
       x="85.598068"
       y="30.716761"
       ry="0" />
    <path
       style="fill:#000000;fill-opacity:1;fill-rule:nonzero;stroke:#000000;stroke-width:0.828347;stroke-linecap:butt;stroke-linejoin:bevel;stroke-dasharray:2.48504;stroke-dashoffset:0;stroke-opacity:1;paint-order:stroke markers fill"
       d="m 142.25804,0.157832 h 13.59317"
       id="path160" />
    <path
       style="fill:#000000;fill-opacity:1;fill-rule:nonzero;stroke:#000000;stroke-width:0.828347;stroke-linecap:butt;stroke-linejoin:bevel;stroke-dasharray:none;stroke-dashoffset:0;stroke-opacity:1;paint-order:stroke markers fill"
       d="M 142.25804,10.490056 H 155.8512"
       id="path160-4-2" />
    <path
       style="fill:#000000;fill-opacity:1;fill-rule:nonzero;stroke:#000000;stroke-width:0.828347;stroke-linecap:butt;stroke-linejoin:bevel;stroke-dasharray:6.62678, 1.65669, 0.828347, 1.65669;stroke-dashoffset:0;stroke-opacity:1;paint-order:stroke markers fill"
       d="m 142.25804,21.390032 h 13.59317"
       id="path160-4" />
    <g
       id="g9">
      <path
         style="font-weight:bold;font-size:7.05556px;font-family:'DejaVu Sans Mono';-inkscape-font-specification:'DejaVu Sans Mono Bold';stroke:#000000;stroke-width:0;stroke-linejoin:bevel;paint-order:stroke markers fill"
         d="m -63.047246,67.929994 -0.478868,2.104955 h 0.961182 z m -0.620117,-0.930176 h 1.24368 l 1.388374,5.143531 h -1.016304 l -0.316949,-1.271241 h -1.360813 l -0.310059,1.271241 h -1.016304 z m 6.400991,4.94716 q -0.254937,0.148139 -0.54777,0.220486 -0.292834,0.07579 -0.630453,0.07579 -0.89228,0 -1.395265,-0.537436 -0.502984,-0.537435 -0.502984,-1.488282 0,-0.954292 0.506429,-1.491727 0.50643,-0.540881 1.39871,-0.540881 0.310059,0 0.596002,0.07235 0.289388,0.07235 0.575331,0.223932 v 0.923286 q -0.220486,-0.18948 -0.485758,-0.289388 -0.261828,-0.103353 -0.544326,-0.103353 -0.492649,0 -0.757921,0.313504 -0.265273,0.313504 -0.265273,0.89228 0,0.578776 0.265273,0.888835 0.265272,0.310059 0.757921,0.310059 0.292833,0 0.547771,-0.09646 0.254937,-0.09991 0.482313,-0.299723 z m 4.247806,0 q -0.254937,0.148139 -0.547771,0.220486 -0.292833,0.07579 -0.630453,0.07579 -0.89228,0 -1.395264,-0.537436 -0.502984,-0.537435 -0.502984,-1.488282 0,-0.954292 0.506429,-1.491727 0.506429,-0.540881 1.39871,-0.540881 0.310058,0 0.596002,0.07235 0.289388,0.07235 0.575331,0.223932 v 0.923286 q -0.220486,-0.18948 -0.485759,-0.289388 -0.261827,-0.103353 -0.544325,-0.103353 -0.492649,0 -0.757922,0.313504 -0.265272,0.313504 -0.265272,0.89228 0,0.578776 0.265272,0.888835 0.265273,0.310059 0.757922,0.310059 0.292833,0 0.54777,-0.09646 0.254937,-0.09991 0.482314,-0.299723 z m 1.143772,-1.150663 v -2.511476 h 1.009414 v 2.356447 q 0,0.416857 0.117133,0.596002 0.117134,0.179145 0.389296,0.179145 0.272163,0 0.423747,-0.241157 0.15503,-0.241157 0.15503,-0.675239 v -2.215198 h 1.009413 v 3.85851 h -1.009413 v -0.571887 q -0.106798,0.320395 -0.36518,0.496095 -0.254938,0.1757 -0.616673,0.1757 -0.551216,0 -0.833714,-0.365181 -0.279053,-0.36518 -0.279053,-1.081761 z m 7.661898,-1.446941 q -0.165365,-0.151584 -0.389296,-0.227376 -0.220486,-0.07579 -0.485759,-0.07579 -0.320394,0 -0.561551,0.113688 -0.237712,0.110243 -0.368625,0.323839 -0.08268,0.130914 -0.117134,0.316949 -0.03101,0.186036 -0.03101,0.564996 v 1.777671 h -1.009413 v -3.85851 h 1.009413 v 0.599447 q 0.14814,-0.330729 0.454753,-0.509874 0.306614,-0.18259 0.716581,-0.18259 0.206706,0 0.403076,0.05168 0.199816,0.04823 0.378961,0.144694 z m 2.694067,0.981853 q -0.564996,0 -0.788927,0.144694 -0.223931,0.144695 -0.223931,0.496094 0,0.261828 0.155029,0.416857 0.155029,0.15503 0.420302,0.15503 0.399631,0 0.620118,-0.299724 0.220486,-0.303168 0.220486,-0.844049 v -0.0689 z m 1.4056,-0.389296 v 2.201418 h -1.002523 v -0.430638 q -0.18259,0.254938 -0.468533,0.392742 -0.285944,0.137804 -0.630453,0.137804 -0.658014,0 -1.026639,-0.347955 -0.365181,-0.347955 -0.365181,-0.971518 0,-0.675239 0.437528,-0.995633 0.437527,-0.323839 1.353923,-0.323839 h 0.699355 v -0.16881 q 0,-0.244602 -0.179145,-0.368626 -0.1757,-0.127468 -0.52021,-0.127468 -0.361735,0 -0.7028,0.09302 -0.33762,0.08957 -0.706245,0.289389 v -0.861275 q 0.334174,-0.137804 0.678684,-0.203261 0.34451,-0.06546 0.730361,-0.06546 0.940512,0 1.319472,0.382405 0.382406,0.382406 0.382406,1.367704 z m 4.085885,2.005047 q -0.254937,0.148139 -0.54777,0.220486 -0.292834,0.07579 -0.630453,0.07579 -0.89228,0 -1.395265,-0.537436 -0.502984,-0.537435 -0.502984,-1.488282 0,-0.954292 0.506429,-1.491727 0.50643,-0.540881 1.39871,-0.540881 0.310059,0 0.596002,0.07235 0.289388,0.07235 0.575331,0.223932 v 0.923286 q -0.220486,-0.18948 -0.485758,-0.289388 -0.261828,-0.103353 -0.544326,-0.103353 -0.492649,0 -0.757921,0.313504 -0.265273,0.313504 -0.265273,0.89228 0,0.578776 0.265273,0.888835 0.265272,0.310059 0.757921,0.310059 0.292833,0 0.547771,-0.09646 0.254937,-0.09991 0.482313,-0.299723 z m 3.042021,0.613228 q -0.203261,0.544325 -0.489204,0.792372 -0.282498,0.251492 -0.68902,0.251492 h -0.833713 v -0.768257 h 0.409966 q 0.310059,0 0.454753,-0.106798 0.144694,-0.103353 0.292833,-0.485758 l 0.07579,-0.206706 -1.467612,-3.751712 h 1.06109 l 0.881945,2.504586 0.844049,-2.504586 h 1.06109 z"
         id="text1"
         transform="rotate(-90)"
         aria-label="Accuracy" />
    </g>
    <path
       style="font-weight:bold;font-size:7.05556px;font-family:'DejaVu Sans Mono';-inkscape-font-specification:'DejaVu Sans Mono Bold';stroke:#000000;stroke-width:0;stroke-linejoin:bevel;paint-order:stroke markers fill"
       d="m 129.83303,115.91183 q -0.24116,0.12402 -0.50643,0.18603 -0.26527,0.062 -0.55811,0.062 -1.04041,0 -1.58819,-0.68557 -0.54777,-0.68557 -0.54777,-1.98093 0,-1.2988 0.54777,-1.98438 0.54778,-0.68557 1.58819,-0.68557 0.29284,0 0.56156,0.062 0.26871,0.062 0.50298,0.18604 v 1.12999 q -0.26183,-0.24116 -0.50987,-0.3514 -0.24461,-0.11369 -0.50643,-0.11369 -0.55811,0 -0.84405,0.44442 -0.2825,0.44097 -0.2825,1.31258 0,0.86816 0.2825,1.31258 0.28594,0.44097 0.84405,0.44097 0.26182,0 0.50643,-0.11024 0.24804,-0.11369 0.50987,-0.35484 z m 2.64583,-2.98346 q -0.36173,0 -0.56844,0.3204 -0.2067,0.31695 -0.2067,0.88539 0,0.56844 0.2067,0.88883 0.20671,0.31695 0.56844,0.31695 0.36519,0 0.57189,-0.31695 0.20671,-0.32039 0.20671,-0.88883 0,-0.56844 -0.20671,-0.88539 -0.2067,-0.3204 -0.57189,-0.3204 z m -1.78456,1.20579 q 0,-0.93362 0.48232,-1.47795 0.48576,-0.54777 1.30224,-0.54777 0.81994,0 1.30225,0.54777 0.48576,0.54433 0.48576,1.47795 0,0.93362 -0.48576,1.48139 -0.48231,0.54432 -1.30225,0.54432 -0.81648,0 -1.30224,-0.54432 -0.48232,-0.54777 -0.48232,-1.48139 z m 7.59989,-0.57878 v 2.50459 h -1.00252 v -2.34956 q 0,-0.4203 -0.12058,-0.59945 -0.11714,-0.18259 -0.38585,-0.18259 -0.27217,0 -0.43064,0.24461 -0.15503,0.2446 -0.15503,0.67868 v 2.20831 h -1.00252 v -3.85851 h 1.00252 v 0.57877 q 0.1068,-0.32039 0.36518,-0.49609 0.25838,-0.1757 0.62356,-0.1757 0.54777,0 0.82683,0.36518 0.27905,0.36174 0.27905,1.08176 z m 4.5303,-1.35392 -1.22645,3.85851 h -1.24368 l -1.22646,-3.85851 h 1.0232 l 0.82338,3.01101 0.82682,-3.01101 z m 4.07211,3.66903 q -0.3514,0.14469 -0.71658,0.21704 -0.36518,0.0723 -0.7717,0.0723 -0.96808,0 -1.4814,-0.51676 -0.50987,-0.52021 -0.50987,-1.49517 0,-0.94396 0.49265,-1.49173 0.49265,-0.54777 1.34359,-0.54777 0.85783,0 1.32981,0.50987 0.47542,0.50643 0.47542,1.42972 v 0.40997 h -2.61483 q 0.003,0.45475 0.26872,0.67868 0.26527,0.22393 0.79237,0.22393 0.34795,0 0.68557,-0.0999 0.33762,-0.0999 0.70625,-0.31694 z m -0.85439,-2.17041 q -0.007,-0.39964 -0.2067,-0.6029 -0.19637,-0.2067 -0.58222,-0.2067 -0.34796,0 -0.55466,0.21359 -0.20671,0.21015 -0.24461,0.59945 z m 5.27101,-0.43409 q -0.16537,-0.15158 -0.3893,-0.22737 -0.22049,-0.0758 -0.48576,-0.0758 -0.32039,0 -0.56155,0.11369 -0.23771,0.11025 -0.36863,0.32384 -0.0827,0.13092 -0.11713,0.31695 -0.031,0.18604 -0.031,0.565 v 1.77767 h -1.00942 v -3.85851 h 1.00942 v 0.59944 q 0.14813,-0.33072 0.45475,-0.50987 0.30661,-0.18259 0.71658,-0.18259 0.2067,0 0.40307,0.0517 0.19982,0.0482 0.37897,0.14469 z m 3.04891,0.80271 q 0,-0.51676 -0.19637,-0.82682 -0.19638,-0.31351 -0.51677,-0.31351 -0.31695,0 -0.51332,0.31006 -0.19292,0.31006 -0.19292,0.83027 0,0.52366 0.19292,0.83371 0.19637,0.31006 0.51332,0.31006 0.32039,0 0.51677,-0.31006 0.19637,-0.3135 0.19637,-0.83371 z m 1.00941,1.70188 q 0,0.92673 -0.4203,1.3367 -0.41686,0.41341 -1.35737,0.41341 -0.31695,0 -0.62701,-0.0482 -0.31006,-0.0448 -0.63045,-0.14125 v -0.92673 q 0.28594,0.15847 0.58222,0.23426 0.29628,0.0758 0.60978,0.0758 0.42719,0 0.63046,-0.20327 0.20326,-0.19981 0.20326,-0.627 v -0.41686 q -0.14814,0.27561 -0.39275,0.40997 -0.2446,0.13436 -0.596,0.13436 -0.66146,0 -1.05075,-0.51677 -0.3893,-0.51676 -0.3893,-1.40215 0,-0.9164 0.3893,-1.45383 0.38929,-0.53744 1.04386,-0.53744 0.33073,0 0.58911,0.15503 0.25839,0.15503 0.40653,0.43753 v -0.49265 h 1.00941 z m 4.26847,0.0999 q -0.35139,0.14469 -0.71658,0.21704 -0.36518,0.0723 -0.7717,0.0723 -0.96807,0 -1.48139,-0.51676 -0.50987,-0.52021 -0.50987,-1.49517 0,-0.94396 0.49265,-1.49173 0.49264,-0.54777 1.34358,-0.54777 0.85783,0 1.32981,0.50987 0.47542,0.50643 0.47542,1.42972 v 0.40997 h -2.61482 q 0.003,0.45475 0.26871,0.67868 0.26528,0.22393 0.79238,0.22393 0.34795,0 0.68557,-0.0999 0.33762,-0.0999 0.70624,-0.31694 z m -0.85438,-2.17041 q -0.007,-0.39964 -0.20671,-0.6029 -0.19637,-0.2067 -0.58222,-0.2067 -0.34795,0 -0.55466,0.21359 -0.2067,0.21015 -0.2446,0.59945 z m 4.99539,-0.1447 v 2.50459 h -1.00252 v -2.34956 q 0,-0.4203 -0.12058,-0.59945 -0.11713,-0.18259 -0.38585,-0.18259 -0.27216,0 -0.43064,0.24461 -0.15503,0.2446 -0.15503,0.67868 v 2.20831 h -1.00252 v -3.85851 h 1.00252 v 0.57877 q 0.1068,-0.32039 0.36518,-0.49609 0.25839,-0.1757 0.62357,-0.1757 0.54777,0 0.82682,0.36518 0.27905,0.36174 0.27905,1.08176 z m 4.21336,2.30822 q -0.25494,0.14814 -0.54777,0.22048 -0.29283,0.0758 -0.63045,0.0758 -0.89228,0 -1.39527,-0.53743 -0.50298,-0.53744 -0.50298,-1.48828 0,-0.95429 0.50643,-1.49173 0.50643,-0.54088 1.39871,-0.54088 0.31005,0 0.596,0.0724 0.28939,0.0723 0.57533,0.22393 v 0.92328 q -0.22049,-0.18948 -0.48576,-0.28938 -0.26183,-0.10336 -0.54433,-0.10336 -0.49264,0 -0.75792,0.31351 -0.26527,0.3135 -0.26527,0.89228 0,0.57877 0.26527,0.88883 0.26528,0.31006 0.75792,0.31006 0.29284,0 0.54778,-0.0965 0.25493,-0.0999 0.48231,-0.29972 z m 4.38905,0.007 q -0.3514,0.14469 -0.71658,0.21704 -0.36518,0.0723 -0.7717,0.0723 -0.96807,0 -1.48139,-0.51676 -0.50987,-0.52021 -0.50987,-1.49517 0,-0.94396 0.49264,-1.49173 0.49265,-0.54777 1.34359,-0.54777 0.85783,0 1.32981,0.50987 0.47542,0.50643 0.47542,1.42972 v 0.40997 h -2.61482 q 0.003,0.45475 0.26871,0.67868 0.26528,0.22393 0.79238,0.22393 0.34795,0 0.68557,-0.0999 0.33762,-0.0999 0.70624,-0.31694 z m -0.85438,-2.17041 q -0.007,-0.39964 -0.20671,-0.6029 -0.19637,-0.2067 -0.58222,-0.2067 -0.34795,0 -0.55466,0.21359 -0.2067,0.21015 -0.2446,0.59945 z m 8.96759,-1.37804 v 0.88194 q -0.27905,-0.17914 -0.58222,-0.26872 -0.29973,-0.093 -0.6029,-0.093 -0.33762,0 -0.50987,0.0999 -0.17225,0.0965 -0.17225,0.28939 0,0.27561 0.73725,0.44786 l 0.0379,0.0103 0.28939,0.0689 q 0.55122,0.13092 0.80615,0.42375 0.25839,0.28939 0.25839,0.78548 0,0.596 -0.39275,0.89573 -0.38929,0.29627 -1.17477,0.29627 -0.34796,0 -0.71314,-0.062 -0.36518,-0.0586 -0.7407,-0.17914 v -0.88195 q 0.33418,0.18948 0.67869,0.28939 0.34795,0.0999 0.67179,0.0999 0.35485,0 0.53744,-0.10335 0.18259,-0.10336 0.18259,-0.29973 0,-0.19292 -0.13092,-0.29628 -0.12746,-0.10335 -0.61322,-0.22048 l -0.27906,-0.062 q -0.57877,-0.13092 -0.84404,-0.40997 -0.26528,-0.27905 -0.26528,-0.74759 0,-0.5581 0.40308,-0.86816 0.40308,-0.31006 1.13344,-0.31006 0.32728,0 0.65112,0.0551 0.32728,0.0517 0.6339,0.15848 z m 2.35645,3.1936 v 2.01194 h -1.00597 v -5.32612 h 1.00597 v 0.57877 q 0.15847,-0.33417 0.41685,-0.50298 0.25839,-0.16881 0.60634,-0.16881 0.66146,0 1.02664,0.53055 0.36518,0.53054 0.36518,1.49517 0,0.97841 -0.37207,1.50206 -0.36863,0.52365 -1.0542,0.52365 -0.31006,0 -0.55811,-0.15847 -0.2446,-0.16192 -0.43063,-0.48576 z m 1.4056,-1.38837 q 0,-0.55811 -0.18604,-0.87506 -0.18603,-0.31695 -0.51332,-0.31695 -0.32728,0 -0.51676,0.31695 -0.18948,0.31695 -0.18948,0.87506 0,0.5581 0.18948,0.87505 0.18948,0.31695 0.51676,0.31695 0.32729,0 0.51332,-0.31695 0.18604,-0.31695 0.18604,-0.87505 z m 5.11596,1.74322 q -0.3514,0.14469 -0.71658,0.21704 -0.36518,0.0723 -0.7717,0.0723 -0.96807,0 -1.48139,-0.51676 -0.50988,-0.52021 -0.50988,-1.49517 0,-0.94396 0.49265,-1.49173 0.49265,-0.54777 1.34359,-0.54777 0.85783,0 1.32981,0.50987 0.47542,0.50643 0.47542,1.42972 v 0.40997 h -2.61483 q 0.003,0.45475 0.26872,0.67868 0.26527,0.22393 0.79237,0.22393 0.34796,0 0.68558,-0.0999 0.33762,-0.0999 0.70624,-0.31694 z m -0.85438,-2.17041 q -0.007,-0.39964 -0.20671,-0.6029 -0.19637,-0.2067 -0.58222,-0.2067 -0.34795,0 -0.55466,0.21359 -0.20671,0.21015 -0.2446,0.59945 z m 5.10219,2.17041 q -0.3514,0.14469 -0.71658,0.21704 -0.36518,0.0723 -0.7717,0.0723 -0.96807,0 -1.48139,-0.51676 -0.50988,-0.52021 -0.50988,-1.49517 0,-0.94396 0.49265,-1.49173 0.49265,-0.54777 1.34359,-0.54777 0.85783,0 1.32981,0.50987 0.47542,0.50643 0.47542,1.42972 v 0.40997 h -2.61483 q 0.003,0.45475 0.26872,0.67868 0.26527,0.22393 0.79237,0.22393 0.34796,0 0.68557,-0.0999 0.33762,-0.0999 0.70625,-0.31694 z m -0.85438,-2.17041 q -0.007,-0.39964 -0.20671,-0.6029 -0.19637,-0.2067 -0.58222,-0.2067 -0.34796,0 -0.55466,0.21359 -0.20671,0.21015 -0.2446,0.59945 z m 4.03076,-0.95085 v -2.04983 h 1.00597 v 5.36057 h -1.00597 v -0.57189 q -0.16192,0.33418 -0.4203,0.50299 -0.25494,0.1688 -0.60289,0.1688 -0.66146,0 -1.02664,-0.53054 -0.36518,-0.53055 -0.36518,-1.49517 0,-0.97841 0.36862,-1.50207 0.37207,-0.52365 1.05765,-0.52365 0.31006,0 0.55466,0.16192 0.24805,0.15847 0.43408,0.47887 z m -1.4056,1.39182 q 0,0.5581 0.18604,0.87505 0.18603,0.31695 0.51332,0.31695 0.32728,0 0.51676,-0.31695 0.18948,-0.31695 0.18948,-0.87505 0,-0.55811 -0.18948,-0.87506 -0.18948,-0.31695 -0.51676,-0.31695 -0.32729,0 -0.51332,0.31695 -0.18604,0.31695 -0.18604,0.87506 z"
       id="text2"
       aria-label="Convergence speed" />
    <text
       xml:space="preserve"
       style="font-style:normal;font-variant:normal;font-weight:normal;font-stretch:normal;font-size:5.64444px;font-family:'DejaVu Sans Mono';-inkscape-font-specification:'DejaVu Sans Mono, Normal';font-variant-ligatures:normal;font-variant-caps:normal;font-variant-numeric:normal;font-variant-east-asian:normal;fill:#000000;stroke:#000000;stroke-width:0;stroke-linejoin:bevel;stroke-dasharray:none;paint-order:stroke markers fill"
       x="92.721382"
       y="2.2124848"
       id="text3"><tspan
         sodipodi:role="line"
         id="tspan3"
         style="font-style:normal;font-variant:normal;font-weight:normal;font-stretch:normal;font-size:5.64444px;font-family:'DejaVu Sans Mono';-inkscape-font-specification:'DejaVu Sans Mono';stroke-width:0"
         x="92.721382"
         y="2.2124848">Cons</tspan></text>
    <text
       xml:space="preserve"
       style="font-style:normal;font-variant:normal;font-weight:normal;font-stretch:normal;font-size:5.64444px;font-family:'DejaVu Sans Mono';-inkscape-font-specification:'DejaVu Sans Mono, Normal';font-variant-ligatures:normal;font-variant-caps:normal;font-variant-numeric:normal;font-variant-east-asian:normal;fill:#000000;stroke:#000000;stroke-width:0;stroke-linejoin:bevel;stroke-dasharray:none;paint-order:stroke markers fill"
       x="92.726898"
       y="12.544709"
       id="text3-6"><tspan
         sodipodi:role="line"
         id="tspan3-2"
         style="font-style:normal;font-variant:normal;font-weight:normal;font-stretch:normal;font-size:5.64444px;font-family:'DejaVu Sans Mono';-inkscape-font-specification:'DejaVu Sans Mono';stroke-width:0"
         x="92.726898"
         y="12.544709">Hes-PRS</tspan></text>
    <text
       xml:space="preserve"
       style="font-style:normal;font-variant:normal;font-weight:normal;font-stretch:normal;font-size:5.64444px;font-family:'DejaVu Sans Mono';-inkscape-font-specification:'DejaVu Sans Mono, Normal';font-variant-ligatures:normal;font-variant-caps:normal;font-variant-numeric:normal;font-variant-east-asian:normal;fill:#000000;stroke:#000000;stroke-width:0;stroke-linejoin:bevel;stroke-dasharray:none;paint-order:stroke markers fill"
       x="159.84444"
       y="2.2124853"
       id="text3-6-7"><tspan
         sodipodi:role="line"
         id="tspan3-2-9"
         style="font-style:normal;font-variant:normal;font-weight:normal;font-stretch:normal;font-size:5.64444px;font-family:'DejaVu Sans Mono';-inkscape-font-specification:'DejaVu Sans Mono';stroke-width:0"
         x="159.84444"
         y="2.2124853">PRS</tspan></text>
    <text
       xml:space="preserve"
       style="font-style:normal;font-variant:normal;font-weight:normal;font-stretch:normal;font-size:5.64444px;font-family:'DejaVu Sans Mono';-inkscape-font-specification:'DejaVu Sans Mono, Normal';font-variant-ligatures:normal;font-variant-caps:normal;font-variant-numeric:normal;font-variant-east-asian:normal;fill:#000000;stroke:#000000;stroke-width:0;stroke-linejoin:bevel;stroke-dasharray:none;paint-order:stroke markers fill"
       x="159.74522"
       y="12.547465"
       id="text3-6-7-5"><tspan
         sodipodi:role="line"
         id="tspan3-2-9-5"
         style="font-style:normal;font-variant:normal;font-weight:normal;font-stretch:normal;font-size:5.64444px;font-family:'DejaVu Sans Mono';-inkscape-font-specification:'DejaVu Sans Mono';stroke-width:0"
         x="159.74522"
         y="12.547465">FD</tspan></text>
    <text
       xml:space="preserve"
       style="font-style:normal;font-variant:normal;font-weight:normal;font-stretch:normal;font-size:5.64444px;font-family:'DejaVu Sans Mono';-inkscape-font-specification:'DejaVu Sans Mono, Normal';font-variant-ligatures:normal;font-variant-caps:normal;font-variant-numeric:normal;font-variant-east-asian:normal;fill:#000000;stroke:#000000;stroke-width:0;stroke-linejoin:bevel;stroke-dasharray:none;paint-order:stroke markers fill"
       x="160.00429"
       y="23.444685"
       id="text3-6-7-5-5"><tspan
         sodipodi:role="line"
         id="tspan3-2-9-5-3"
         style="font-style:normal;font-variant:normal;font-weight:normal;font-stretch:normal;font-size:5.64444px;font-family:'DejaVu Sans Mono';-inkscape-font-specification:'DejaVu Sans Mono';stroke-width:0"
         x="160.00429"
         y="23.444685">SPSA</tspan></text>
    <text
       xml:space="preserve"
       style="font-style:normal;font-variant:normal;font-weight:normal;font-stretch:normal;font-size:5.64444px;font-family:'DejaVu Sans Mono';-inkscape-font-specification:'DejaVu Sans Mono, Normal';font-variant-ligatures:normal;font-variant-caps:normal;font-variant-numeric:normal;font-variant-east-asian:normal;fill:#000000;stroke:#000000;stroke-width:0;stroke-linejoin:bevel;stroke-dasharray:none;paint-order:stroke markers fill"
       x="92.782021"
       y="23.112579"
       id="text3-6-1"><tspan
         sodipodi:role="line"
         id="tspan3-2-0"
         style="font-style:normal;font-variant:normal;font-weight:normal;font-stretch:normal;font-size:5.64444px;font-family:'DejaVu Sans Mono';-inkscape-font-specification:'DejaVu Sans Mono';stroke-width:0"
         x="92.782021"
         y="23.112579">QNG-BDA</tspan></text>
    <text
       xml:space="preserve"
       style="font-style:normal;font-variant:normal;font-weight:normal;font-stretch:normal;font-size:5.64444px;font-family:'DejaVu Sans Mono';-inkscape-font-specification:'DejaVu Sans Mono, Normal';font-variant-ligatures:normal;font-variant-caps:normal;font-variant-numeric:normal;font-variant-east-asian:normal;fill:#000000;stroke:#000000;stroke-width:0;stroke-linejoin:bevel;stroke-dasharray:none;paint-order:stroke markers fill"
       x="92.782021"
       y="34.580307"
       id="text3-6-1-9"><tspan
         sodipodi:role="line"
         id="tspan3-2-0-1"
         style="font-style:normal;font-variant:normal;font-weight:normal;font-stretch:normal;font-size:5.64444px;font-family:'DejaVu Sans Mono';-inkscape-font-specification:'DejaVu Sans Mono';stroke-width:0"
         x="92.782021"
         y="34.580307">QN-SPSA</tspan></text>
  </g>
</svg>
