<?xml version="1.0" encoding="utf-8" standalone="no"?>
<!DOCTYPE svg PUBLIC "-//W3C//DTD SVG 1.1//EN"
  "http://www.w3.org/Graphics/SVG/1.1/DTD/svg11.dtd">
<svg xmlns:xlink="http://www.w3.org/1999/xlink" width="436.876094pt" height="318.61075pt" viewBox="0 0 436.876094 318.61075" xmlns="http://www.w3.org/2000/svg" version="1.1">
 <metadata>
  <rdf:RDF xmlns:dc="http://purl.org/dc/elements/1.1/" xmlns:cc="http://creativecommons.org/ns#" xmlns:rdf="http://www.w3.org/1999/02/22-rdf-syntax-ns#">
   <cc:Work>
    <dc:type rdf:resource="http://purl.org/dc/dcmitype/StillImage"/>
    <dc:date>2024-06-03T09:55:00.113238</dc:date>
    <dc:format>image/svg+xml</dc:format>
    <dc:creator>
     <cc:Agent>
      <dc:title>Matplotlib v3.7.0, https://matplotlib.org/</dc:title>
     </cc:Agent>
    </dc:creator>
   </cc:Work>
  </rdf:RDF>
 </metadata>
 <defs>
  <style type="text/css">*{stroke-linejoin: round; stroke-linecap: butt}</style>
 </defs>
 <g id="figure_1">
  <g id="patch_1">
   <path d="M 0 318.61075 
L 436.876094 318.61075 
L 436.876094 0 
L 0 0 
z
" style="fill: #ffffff"/>
  </g>
  <g id="axes_1">
   <g id="patch_2">
    <path d="M 72.556094 273.312 
L 429.676094 273.312 
L 429.676094 7.2 
L 72.556094 7.2 
z
" style="fill: #ffffff"/>
   </g>
   <g id="matplotlib.axis_1">
    <g id="xtick_1">
     <g id="line2d_1">
      <defs>
       <path id="m0d535b1787" d="M 0 0 
L 0 3.5 
" style="stroke: #000000; stroke-width: 0.8"/>
      </defs>
      <g>
       <use xlink:href="#m0d535b1787" x="115.843366" y="273.312" style="stroke: #000000; stroke-width: 0.8"/>
      </g>
     </g>
     <g id="text_1">
      <!-- 0.0 -->
      <g transform="translate(105.506335 290.189969) scale(0.13 -0.13)">
       <defs>
        <path id="DejaVuSans-30" d="M 2034 4250 
Q 1547 4250 1301 3770 
Q 1056 3291 1056 2328 
Q 1056 1369 1301 889 
Q 1547 409 2034 409 
Q 2525 409 2770 889 
Q 3016 1369 3016 2328 
Q 3016 3291 2770 3770 
Q 2525 4250 2034 4250 
z
M 2034 4750 
Q 2819 4750 3233 4129 
Q 3647 3509 3647 2328 
Q 3647 1150 3233 529 
Q 2819 -91 2034 -91 
Q 1250 -91 836 529 
Q 422 1150 422 2328 
Q 422 3509 836 4129 
Q 1250 4750 2034 4750 
z
" transform="scale(0.015625)"/>
        <path id="DejaVuSans-2e" d="M 684 794 
L 1344 794 
L 1344 0 
L 684 0 
L 684 794 
z
" transform="scale(0.015625)"/>
       </defs>
       <use xlink:href="#DejaVuSans-30"/>
       <use xlink:href="#DejaVuSans-2e" x="63.623047"/>
       <use xlink:href="#DejaVuSans-30" x="95.410156"/>
      </g>
     </g>
    </g>
    <g id="xtick_2">
     <g id="line2d_2">
      <g>
       <use xlink:href="#m0d535b1787" x="183.47973" y="273.312" style="stroke: #000000; stroke-width: 0.8"/>
      </g>
     </g>
     <g id="text_2">
      <!-- 0.5 -->
      <g transform="translate(173.142699 290.189969) scale(0.13 -0.13)">
       <defs>
        <path id="DejaVuSans-35" d="M 691 4666 
L 3169 4666 
L 3169 4134 
L 1269 4134 
L 1269 2991 
Q 1406 3038 1543 3061 
Q 1681 3084 1819 3084 
Q 2600 3084 3056 2656 
Q 3513 2228 3513 1497 
Q 3513 744 3044 326 
Q 2575 -91 1722 -91 
Q 1428 -91 1123 -41 
Q 819 9 494 109 
L 494 744 
Q 775 591 1075 516 
Q 1375 441 1709 441 
Q 2250 441 2565 725 
Q 2881 1009 2881 1497 
Q 2881 1984 2565 2268 
Q 2250 2553 1709 2553 
Q 1456 2553 1204 2497 
Q 953 2441 691 2322 
L 691 4666 
z
" transform="scale(0.015625)"/>
       </defs>
       <use xlink:href="#DejaVuSans-30"/>
       <use xlink:href="#DejaVuSans-2e" x="63.623047"/>
       <use xlink:href="#DejaVuSans-35" x="95.410156"/>
      </g>
     </g>
    </g>
    <g id="xtick_3">
     <g id="line2d_3">
      <g>
       <use xlink:href="#m0d535b1787" x="251.116094" y="273.312" style="stroke: #000000; stroke-width: 0.8"/>
      </g>
     </g>
     <g id="text_3">
      <!-- 1.0 -->
      <g transform="translate(240.779062 290.189969) scale(0.13 -0.13)">
       <defs>
        <path id="DejaVuSans-31" d="M 794 531 
L 1825 531 
L 1825 4091 
L 703 3866 
L 703 4441 
L 1819 4666 
L 2450 4666 
L 2450 531 
L 3481 531 
L 3481 0 
L 794 0 
L 794 531 
z
" transform="scale(0.015625)"/>
       </defs>
       <use xlink:href="#DejaVuSans-31"/>
       <use xlink:href="#DejaVuSans-2e" x="63.623047"/>
       <use xlink:href="#DejaVuSans-30" x="95.410156"/>
      </g>
     </g>
    </g>
    <g id="xtick_4">
     <g id="line2d_4">
      <g>
       <use xlink:href="#m0d535b1787" x="318.752457" y="273.312" style="stroke: #000000; stroke-width: 0.8"/>
      </g>
     </g>
     <g id="text_4">
      <!-- 1.5 -->
      <g transform="translate(308.415426 290.189969) scale(0.13 -0.13)">
       <use xlink:href="#DejaVuSans-31"/>
       <use xlink:href="#DejaVuSans-2e" x="63.623047"/>
       <use xlink:href="#DejaVuSans-35" x="95.410156"/>
      </g>
     </g>
    </g>
    <g id="xtick_5">
     <g id="line2d_5">
      <g>
       <use xlink:href="#m0d535b1787" x="386.388821" y="273.312" style="stroke: #000000; stroke-width: 0.8"/>
      </g>
     </g>
     <g id="text_5">
      <!-- 2.0 -->
      <g transform="translate(376.05179 290.189969) scale(0.13 -0.13)">
       <defs>
        <path id="DejaVuSans-32" d="M 1228 531 
L 3431 531 
L 3431 0 
L 469 0 
L 469 531 
Q 828 903 1448 1529 
Q 2069 2156 2228 2338 
Q 2531 2678 2651 2914 
Q 2772 3150 2772 3378 
Q 2772 3750 2511 3984 
Q 2250 4219 1831 4219 
Q 1534 4219 1204 4116 
Q 875 4013 500 3803 
L 500 4441 
Q 881 4594 1212 4672 
Q 1544 4750 1819 4750 
Q 2544 4750 2975 4387 
Q 3406 4025 3406 3419 
Q 3406 3131 3298 2873 
Q 3191 2616 2906 2266 
Q 2828 2175 2409 1742 
Q 1991 1309 1228 531 
z
" transform="scale(0.015625)"/>
       </defs>
       <use xlink:href="#DejaVuSans-32"/>
       <use xlink:href="#DejaVuSans-2e" x="63.623047"/>
       <use xlink:href="#DejaVuSans-30" x="95.410156"/>
      </g>
     </g>
    </g>
    <g id="text_6">
     <!-- External Field -->
     <g transform="translate(200.30125 308.291219) scale(0.15 -0.15)">
      <defs>
       <path id="DejaVuSans-45" d="M 628 4666 
L 3578 4666 
L 3578 4134 
L 1259 4134 
L 1259 2753 
L 3481 2753 
L 3481 2222 
L 1259 2222 
L 1259 531 
L 3634 531 
L 3634 0 
L 628 0 
L 628 4666 
z
" transform="scale(0.015625)"/>
       <path id="DejaVuSans-78" d="M 3513 3500 
L 2247 1797 
L 3578 0 
L 2900 0 
L 1881 1375 
L 863 0 
L 184 0 
L 1544 1831 
L 300 3500 
L 978 3500 
L 1906 2253 
L 2834 3500 
L 3513 3500 
z
" transform="scale(0.015625)"/>
       <path id="DejaVuSans-74" d="M 1172 4494 
L 1172 3500 
L 2356 3500 
L 2356 3053 
L 1172 3053 
L 1172 1153 
Q 1172 725 1289 603 
Q 1406 481 1766 481 
L 2356 481 
L 2356 0 
L 1766 0 
Q 1100 0 847 248 
Q 594 497 594 1153 
L 594 3053 
L 172 3053 
L 172 3500 
L 594 3500 
L 594 4494 
L 1172 4494 
z
" transform="scale(0.015625)"/>
       <path id="DejaVuSans-65" d="M 3597 1894 
L 3597 1613 
L 953 1613 
Q 991 1019 1311 708 
Q 1631 397 2203 397 
Q 2534 397 2845 478 
Q 3156 559 3463 722 
L 3463 178 
Q 3153 47 2828 -22 
Q 2503 -91 2169 -91 
Q 1331 -91 842 396 
Q 353 884 353 1716 
Q 353 2575 817 3079 
Q 1281 3584 2069 3584 
Q 2775 3584 3186 3129 
Q 3597 2675 3597 1894 
z
M 3022 2063 
Q 3016 2534 2758 2815 
Q 2500 3097 2075 3097 
Q 1594 3097 1305 2825 
Q 1016 2553 972 2059 
L 3022 2063 
z
" transform="scale(0.015625)"/>
       <path id="DejaVuSans-72" d="M 2631 2963 
Q 2534 3019 2420 3045 
Q 2306 3072 2169 3072 
Q 1681 3072 1420 2755 
Q 1159 2438 1159 1844 
L 1159 0 
L 581 0 
L 581 3500 
L 1159 3500 
L 1159 2956 
Q 1341 3275 1631 3429 
Q 1922 3584 2338 3584 
Q 2397 3584 2469 3576 
Q 2541 3569 2628 3553 
L 2631 2963 
z
" transform="scale(0.015625)"/>
       <path id="DejaVuSans-6e" d="M 3513 2113 
L 3513 0 
L 2938 0 
L 2938 2094 
Q 2938 2591 2744 2837 
Q 2550 3084 2163 3084 
Q 1697 3084 1428 2787 
Q 1159 2491 1159 1978 
L 1159 0 
L 581 0 
L 581 3500 
L 1159 3500 
L 1159 2956 
Q 1366 3272 1645 3428 
Q 1925 3584 2291 3584 
Q 2894 3584 3203 3211 
Q 3513 2838 3513 2113 
z
" transform="scale(0.015625)"/>
       <path id="DejaVuSans-61" d="M 2194 1759 
Q 1497 1759 1228 1600 
Q 959 1441 959 1056 
Q 959 750 1161 570 
Q 1363 391 1709 391 
Q 2188 391 2477 730 
Q 2766 1069 2766 1631 
L 2766 1759 
L 2194 1759 
z
M 3341 1997 
L 3341 0 
L 2766 0 
L 2766 531 
Q 2569 213 2275 61 
Q 1981 -91 1556 -91 
Q 1019 -91 701 211 
Q 384 513 384 1019 
Q 384 1609 779 1909 
Q 1175 2209 1959 2209 
L 2766 2209 
L 2766 2266 
Q 2766 2663 2505 2880 
Q 2244 3097 1772 3097 
Q 1472 3097 1187 3025 
Q 903 2953 641 2809 
L 641 3341 
Q 956 3463 1253 3523 
Q 1550 3584 1831 3584 
Q 2591 3584 2966 3190 
Q 3341 2797 3341 1997 
z
" transform="scale(0.015625)"/>
       <path id="DejaVuSans-6c" d="M 603 4863 
L 1178 4863 
L 1178 0 
L 603 0 
L 603 4863 
z
" transform="scale(0.015625)"/>
       <path id="DejaVuSans-20" transform="scale(0.015625)"/>
       <path id="DejaVuSans-46" d="M 628 4666 
L 3309 4666 
L 3309 4134 
L 1259 4134 
L 1259 2759 
L 3109 2759 
L 3109 2228 
L 1259 2228 
L 1259 0 
L 628 0 
L 628 4666 
z
" transform="scale(0.015625)"/>
       <path id="DejaVuSans-69" d="M 603 3500 
L 1178 3500 
L 1178 0 
L 603 0 
L 603 3500 
z
M 603 4863 
L 1178 4863 
L 1178 4134 
L 603 4134 
L 603 4863 
z
" transform="scale(0.015625)"/>
       <path id="DejaVuSans-64" d="M 2906 2969 
L 2906 4863 
L 3481 4863 
L 3481 0 
L 2906 0 
L 2906 525 
Q 2725 213 2448 61 
Q 2172 -91 1784 -91 
Q 1150 -91 751 415 
Q 353 922 353 1747 
Q 353 2572 751 3078 
Q 1150 3584 1784 3584 
Q 2172 3584 2448 3432 
Q 2725 3281 2906 2969 
z
M 947 1747 
Q 947 1113 1208 752 
Q 1469 391 1925 391 
Q 2381 391 2643 752 
Q 2906 1113 2906 1747 
Q 2906 2381 2643 2742 
Q 2381 3103 1925 3103 
Q 1469 3103 1208 2742 
Q 947 2381 947 1747 
z
" transform="scale(0.015625)"/>
      </defs>
      <use xlink:href="#DejaVuSans-45"/>
      <use xlink:href="#DejaVuSans-78" x="63.183594"/>
      <use xlink:href="#DejaVuSans-74" x="122.363281"/>
      <use xlink:href="#DejaVuSans-65" x="161.572266"/>
      <use xlink:href="#DejaVuSans-72" x="223.095703"/>
      <use xlink:href="#DejaVuSans-6e" x="262.458984"/>
      <use xlink:href="#DejaVuSans-61" x="325.837891"/>
      <use xlink:href="#DejaVuSans-6c" x="387.117188"/>
      <use xlink:href="#DejaVuSans-20" x="414.900391"/>
      <use xlink:href="#DejaVuSans-46" x="446.6875"/>
      <use xlink:href="#DejaVuSans-69" x="496.957031"/>
      <use xlink:href="#DejaVuSans-65" x="524.740234"/>
      <use xlink:href="#DejaVuSans-6c" x="586.263672"/>
      <use xlink:href="#DejaVuSans-64" x="614.046875"/>
     </g>
    </g>
   </g>
   <g id="matplotlib.axis_2">
    <g id="ytick_1">
     <g id="line2d_6">
      <defs>
       <path id="m5aec2e4217" d="M 0 0 
L -3.5 0 
" style="stroke: #000000; stroke-width: 0.8"/>
      </defs>
      <g>
       <use xlink:href="#m5aec2e4217" x="72.556094" y="249.227211" style="stroke: #000000; stroke-width: 0.8"/>
      </g>
     </g>
     <g id="text_7">
      <!-- −2.25 -->
      <g transform="translate(25.717188 254.166195) scale(0.13 -0.13)">
       <defs>
        <path id="DejaVuSans-2212" d="M 678 2272 
L 4684 2272 
L 4684 1741 
L 678 1741 
L 678 2272 
z
" transform="scale(0.015625)"/>
       </defs>
       <use xlink:href="#DejaVuSans-2212"/>
       <use xlink:href="#DejaVuSans-32" x="83.789062"/>
       <use xlink:href="#DejaVuSans-2e" x="147.412109"/>
       <use xlink:href="#DejaVuSans-32" x="179.199219"/>
       <use xlink:href="#DejaVuSans-35" x="242.822266"/>
      </g>
     </g>
    </g>
    <g id="ytick_2">
     <g id="line2d_7">
      <g>
       <use xlink:href="#m5aec2e4217" x="72.556094" y="203.24986" style="stroke: #000000; stroke-width: 0.8"/>
      </g>
     </g>
     <g id="text_8">
      <!-- −2.00 -->
      <g transform="translate(25.717188 208.188845) scale(0.13 -0.13)">
       <use xlink:href="#DejaVuSans-2212"/>
       <use xlink:href="#DejaVuSans-32" x="83.789062"/>
       <use xlink:href="#DejaVuSans-2e" x="147.412109"/>
       <use xlink:href="#DejaVuSans-30" x="179.199219"/>
       <use xlink:href="#DejaVuSans-30" x="242.822266"/>
      </g>
     </g>
    </g>
    <g id="ytick_3">
     <g id="line2d_8">
      <g>
       <use xlink:href="#m5aec2e4217" x="72.556094" y="157.27251" style="stroke: #000000; stroke-width: 0.8"/>
      </g>
     </g>
     <g id="text_9">
      <!-- −1.75 -->
      <g transform="translate(25.717188 162.211494) scale(0.13 -0.13)">
       <defs>
        <path id="DejaVuSans-37" d="M 525 4666 
L 3525 4666 
L 3525 4397 
L 1831 0 
L 1172 0 
L 2766 4134 
L 525 4134 
L 525 4666 
z
" transform="scale(0.015625)"/>
       </defs>
       <use xlink:href="#DejaVuSans-2212"/>
       <use xlink:href="#DejaVuSans-31" x="83.789062"/>
       <use xlink:href="#DejaVuSans-2e" x="147.412109"/>
       <use xlink:href="#DejaVuSans-37" x="179.199219"/>
       <use xlink:href="#DejaVuSans-35" x="242.822266"/>
      </g>
     </g>
    </g>
    <g id="ytick_4">
     <g id="line2d_9">
      <g>
       <use xlink:href="#m5aec2e4217" x="72.556094" y="111.295159" style="stroke: #000000; stroke-width: 0.8"/>
      </g>
     </g>
     <g id="text_10">
      <!-- −1.50 -->
      <g transform="translate(25.717188 116.234143) scale(0.13 -0.13)">
       <use xlink:href="#DejaVuSans-2212"/>
       <use xlink:href="#DejaVuSans-31" x="83.789062"/>
       <use xlink:href="#DejaVuSans-2e" x="147.412109"/>
       <use xlink:href="#DejaVuSans-35" x="179.199219"/>
       <use xlink:href="#DejaVuSans-30" x="242.822266"/>
      </g>
     </g>
    </g>
    <g id="ytick_5">
     <g id="line2d_10">
      <g>
       <use xlink:href="#m5aec2e4217" x="72.556094" y="65.317808" style="stroke: #000000; stroke-width: 0.8"/>
      </g>
     </g>
     <g id="text_11">
      <!-- −1.25 -->
      <g transform="translate(25.717188 70.256792) scale(0.13 -0.13)">
       <use xlink:href="#DejaVuSans-2212"/>
       <use xlink:href="#DejaVuSans-31" x="83.789062"/>
       <use xlink:href="#DejaVuSans-2e" x="147.412109"/>
       <use xlink:href="#DejaVuSans-32" x="179.199219"/>
       <use xlink:href="#DejaVuSans-35" x="242.822266"/>
      </g>
     </g>
    </g>
    <g id="ytick_6">
     <g id="line2d_11">
      <g>
       <use xlink:href="#m5aec2e4217" x="72.556094" y="19.340457" style="stroke: #000000; stroke-width: 0.8"/>
      </g>
     </g>
     <g id="text_12">
      <!-- −1.00 -->
      <g transform="translate(25.717188 24.279442) scale(0.13 -0.13)">
       <use xlink:href="#DejaVuSans-2212"/>
       <use xlink:href="#DejaVuSans-31" x="83.789062"/>
       <use xlink:href="#DejaVuSans-2e" x="147.412109"/>
       <use xlink:href="#DejaVuSans-30" x="179.199219"/>
       <use xlink:href="#DejaVuSans-30" x="242.822266"/>
      </g>
     </g>
    </g>
    <g id="text_13">
     <!-- E/N -->
     <g transform="translate(18.597656 153.132562) rotate(-90) scale(0.15 -0.15)">
      <defs>
       <path id="DejaVuSans-2f" d="M 1625 4666 
L 2156 4666 
L 531 -594 
L 0 -594 
L 1625 4666 
z
" transform="scale(0.015625)"/>
       <path id="DejaVuSans-4e" d="M 628 4666 
L 1478 4666 
L 3547 763 
L 3547 4666 
L 4159 4666 
L 4159 0 
L 3309 0 
L 1241 3903 
L 1241 0 
L 628 0 
L 628 4666 
z
" transform="scale(0.015625)"/>
      </defs>
      <use xlink:href="#DejaVuSans-45"/>
      <use xlink:href="#DejaVuSans-2f" x="63.183594"/>
      <use xlink:href="#DejaVuSans-4e" x="96.875"/>
     </g>
    </g>
   </g>
   <g id="line2d_12">
    <path d="M 88.788821 21.184196 
L 91.494276 20.833165 
L 94.19973 20.519373 
L 96.905185 20.242723 
L 99.610639 20.003129 
L 102.316094 19.800519 
L 105.021548 19.63483 
L 107.727003 19.506013 
L 110.432457 19.414028 
L 113.137912 19.358849 
L 115.843366 19.340457 
L 118.548821 19.358849 
L 121.254276 19.414028 
L 123.95973 19.506013 
L 126.665185 19.63483 
L 129.370639 19.800519 
L 132.076094 20.003129 
L 134.781548 20.242723 
L 137.487003 20.519373 
L 140.192457 20.833165 
L 142.897912 21.184196 
L 145.603366 21.572576 
L 148.308821 21.998427 
L 151.014276 22.461886 
L 153.71973 22.963102 
L 156.425185 23.502239 
L 159.130639 24.079476 
L 161.836094 24.695009 
L 164.541548 25.349047 
L 167.247003 26.041821 
L 169.952457 26.77358 
L 172.657912 27.544592 
L 175.363366 28.35515 
L 178.068821 29.205572 
L 180.774276 30.096205 
L 183.47973 31.027427 
L 186.185185 31.999656 
L 188.890639 33.01335 
L 191.596094 34.069019 
L 194.301548 35.167232 
L 197.007003 36.308628 
L 199.712457 37.493923 
L 202.417912 38.723933 
L 205.123366 39.999582 
L 207.828821 41.321922 
L 210.534276 42.692153 
L 213.23973 44.11164 
L 215.945185 45.581931 
L 218.650639 47.10477 
L 221.356094 48.682105 
L 224.061548 50.31608 
L 226.767003 52.009018 
L 229.472457 53.763367 
L 232.177912 55.581634 
L 234.883366 57.466276 
L 237.588821 59.41956 
L 240.294276 61.443407 
L 242.99973 63.539221 
L 245.705185 65.707736 
L 248.410639 67.948902 
L 251.116094 70.261832 
L 253.821548 72.644818 
L 256.527003 75.09542 
L 259.232457 77.610602 
L 261.937912 80.186902 
L 264.643366 82.820604 
L 267.348821 85.507896 
L 270.054276 88.244999 
L 272.75973 91.028266 
L 275.465185 93.854244 
L 278.170639 96.719716 
L 280.876094 99.621715 
L 283.581548 102.557529 
L 286.287003 105.524691 
L 288.992457 108.520963 
L 291.697912 111.544319 
L 294.403366 114.592927 
L 297.108821 117.665127 
L 299.814276 120.759416 
L 302.51973 123.874428 
L 305.225185 127.008922 
L 307.930639 130.161763 
L 310.636094 133.331918 
L 313.341548 136.518437 
L 316.047003 139.720449 
L 318.752457 142.93715 
L 321.457912 146.1678 
L 324.163366 149.411713 
L 326.868821 152.668252 
L 329.574276 155.936827 
L 332.27973 159.216887 
L 334.985185 162.507918 
L 337.690639 165.809438 
L 340.396094 169.120999 
L 343.101548 172.442177 
L 345.807003 175.772577 
L 348.512457 179.111824 
L 351.217912 182.459568 
L 353.923366 185.815475 
L 356.628821 189.179232 
L 359.334276 192.550543 
L 362.03973 195.929126 
L 364.745185 199.314716 
L 367.450639 202.707059 
L 370.156094 206.105916 
L 372.861548 209.511058 
L 375.567003 212.922268 
L 378.272457 216.33934 
L 380.977912 219.762077 
L 383.683366 223.19029 
L 386.388821 226.6238 
L 389.094276 230.062436 
L 391.79973 233.506035 
L 394.505185 236.954439 
L 397.210639 240.407499 
L 399.916094 243.865071 
L 402.621548 247.327018 
L 405.327003 250.793208 
L 408.032457 254.263515 
L 410.737912 257.737818 
L 413.443366 261.216 
" clip-path="url(#pebd12228ae)" style="fill: none; stroke-dasharray: 5.55,2.4; stroke-dashoffset: 0; stroke: #800080; stroke-width: 1.5"/>
   </g>
   <g id="line2d_13">
    <path d="M 115.843366 19.340457 
L 142.897912 21.183764 
L 169.952457 26.764191 
L 197.007003 36.233544 
L 224.061548 49.850756 
L 251.116094 68.017381 
L 278.170639 91.503391 
L 305.225185 122.859956 
L 332.27973 155.945287 
L 359.334276 189.826159 
L 386.388821 224.283217 
" clip-path="url(#pebd12228ae)" style="fill: none; stroke: #ffa500; stroke-width: 1.5; stroke-linecap: square"/>
    <defs>
     <path id="m490b6a7f8b" d="M -3 3 
L 3 3 
L 3 -3 
L -3 -3 
z
" style="stroke: #ffa500; stroke-linejoin: miter"/>
    </defs>
    <g clip-path="url(#pebd12228ae)">
     <use xlink:href="#m490b6a7f8b" x="115.843366" y="19.340457" style="fill: #ffa500; stroke: #ffa500; stroke-linejoin: miter"/>
     <use xlink:href="#m490b6a7f8b" x="142.897912" y="21.183764" style="fill: #ffa500; stroke: #ffa500; stroke-linejoin: miter"/>
     <use xlink:href="#m490b6a7f8b" x="169.952457" y="26.764191" style="fill: #ffa500; stroke: #ffa500; stroke-linejoin: miter"/>
     <use xlink:href="#m490b6a7f8b" x="197.007003" y="36.233544" style="fill: #ffa500; stroke: #ffa500; stroke-linejoin: miter"/>
     <use xlink:href="#m490b6a7f8b" x="224.061548" y="49.850756" style="fill: #ffa500; stroke: #ffa500; stroke-linejoin: miter"/>
     <use xlink:href="#m490b6a7f8b" x="251.116094" y="68.017381" style="fill: #ffa500; stroke: #ffa500; stroke-linejoin: miter"/>
     <use xlink:href="#m490b6a7f8b" x="278.170639" y="91.503391" style="fill: #ffa500; stroke: #ffa500; stroke-linejoin: miter"/>
     <use xlink:href="#m490b6a7f8b" x="305.225185" y="122.859956" style="fill: #ffa500; stroke: #ffa500; stroke-linejoin: miter"/>
     <use xlink:href="#m490b6a7f8b" x="332.27973" y="155.945287" style="fill: #ffa500; stroke: #ffa500; stroke-linejoin: miter"/>
     <use xlink:href="#m490b6a7f8b" x="359.334276" y="189.826159" style="fill: #ffa500; stroke: #ffa500; stroke-linejoin: miter"/>
     <use xlink:href="#m490b6a7f8b" x="386.388821" y="224.283217" style="fill: #ffa500; stroke: #ffa500; stroke-linejoin: miter"/>
    </g>
   </g>
   <g id="LineCollection_1">
    <path d="M 115.843366 19.340457 
L 115.843366 19.340457 
" clip-path="url(#pebd12228ae)" style="fill: none; stroke: #0000ff; stroke-opacity: 0.9; stroke-width: 1.5"/>
    <path d="M 142.897912 21.183764 
L 142.897912 21.183764 
" clip-path="url(#pebd12228ae)" style="fill: none; stroke: #0000ff; stroke-opacity: 0.9; stroke-width: 1.5"/>
    <path d="M 169.952457 26.764191 
L 169.952457 26.76419 
" clip-path="url(#pebd12228ae)" style="fill: none; stroke: #0000ff; stroke-opacity: 0.9; stroke-width: 1.5"/>
    <path d="M 197.007003 36.23356 
L 197.007003 36.233533 
" clip-path="url(#pebd12228ae)" style="fill: none; stroke: #0000ff; stroke-opacity: 0.9; stroke-width: 1.5"/>
    <path d="M 224.061548 49.850758 
L 224.061548 49.85064 
" clip-path="url(#pebd12228ae)" style="fill: none; stroke: #0000ff; stroke-opacity: 0.9; stroke-width: 1.5"/>
    <path d="M 251.116094 68.01958 
L 251.116094 68.013585 
" clip-path="url(#pebd12228ae)" style="fill: none; stroke: #0000ff; stroke-opacity: 0.9; stroke-width: 1.5"/>
    <path d="M 278.170639 91.520349 
L 278.170639 91.416149 
" clip-path="url(#pebd12228ae)" style="fill: none; stroke: #0000ff; stroke-opacity: 0.9; stroke-width: 1.5"/>
    <path d="M 305.225185 122.184179 
L 305.225185 121.796413 
" clip-path="url(#pebd12228ae)" style="fill: none; stroke: #0000ff; stroke-opacity: 0.9; stroke-width: 1.5"/>
    <path d="M 332.27973 155.778916 
L 332.27973 155.643891 
" clip-path="url(#pebd12228ae)" style="fill: none; stroke: #0000ff; stroke-opacity: 0.9; stroke-width: 1.5"/>
    <path d="M 359.334276 189.876729 
L 359.334276 189.59632 
" clip-path="url(#pebd12228ae)" style="fill: none; stroke: #0000ff; stroke-opacity: 0.9; stroke-width: 1.5"/>
    <path d="M 386.388821 224.350224 
L 386.388821 224.128013 
" clip-path="url(#pebd12228ae)" style="fill: none; stroke: #0000ff; stroke-opacity: 0.9; stroke-width: 1.5"/>
   </g>
   <g id="LineCollection_2">
    <path d="M 115.843366 19.331568 
L 115.843366 19.296 
" clip-path="url(#pebd12228ae)" style="fill: none; stroke: #708090; stroke-opacity: 0.9; stroke-width: 1.5"/>
    <path d="M 142.897912 21.175278 
L 142.897912 21.141854 
" clip-path="url(#pebd12228ae)" style="fill: none; stroke: #708090; stroke-opacity: 0.9; stroke-width: 1.5"/>
    <path d="M 169.952457 26.768234 
L 169.952457 26.608421 
" clip-path="url(#pebd12228ae)" style="fill: none; stroke: #708090; stroke-opacity: 0.9; stroke-width: 1.5"/>
    <path d="M 197.007003 36.333358 
L 197.007003 35.942118 
" clip-path="url(#pebd12228ae)" style="fill: none; stroke: #708090; stroke-opacity: 0.9; stroke-width: 1.5"/>
    <path d="M 224.061548 51.912961 
L 224.061548 44.654976 
" clip-path="url(#pebd12228ae)" style="fill: none; stroke: #708090; stroke-opacity: 0.9; stroke-width: 1.5"/>
    <path d="M 251.116094 68.346989 
L 251.116094 58.750535 
" clip-path="url(#pebd12228ae)" style="fill: none; stroke: #708090; stroke-opacity: 0.9; stroke-width: 1.5"/>
    <path d="M 278.170639 88.89856 
L 278.170639 68.237512 
" clip-path="url(#pebd12228ae)" style="fill: none; stroke: #708090; stroke-opacity: 0.9; stroke-width: 1.5"/>
    <path d="M 305.225185 123.617785 
L 305.225185 105.925917 
" clip-path="url(#pebd12228ae)" style="fill: none; stroke: #708090; stroke-opacity: 0.9; stroke-width: 1.5"/>
    <path d="M 332.27973 157.886255 
L 332.27973 137.23114 
" clip-path="url(#pebd12228ae)" style="fill: none; stroke: #708090; stroke-opacity: 0.9; stroke-width: 1.5"/>
    <path d="M 359.334276 187.166369 
L 359.334276 179.933103 
" clip-path="url(#pebd12228ae)" style="fill: none; stroke: #708090; stroke-opacity: 0.9; stroke-width: 1.5"/>
    <path d="M 386.388821 222.99371 
L 386.388821 189.094007 
" clip-path="url(#pebd12228ae)" style="fill: none; stroke: #708090; stroke-opacity: 0.9; stroke-width: 1.5"/>
   </g>
   <g id="line2d_14">
    <defs>
     <path id="m3e6f481c8d" d="M -3 3 
L 3 3 
L 3 -3 
L -3 -3 
z
" style="stroke: #0000ff; stroke-opacity: 0.9; stroke-linejoin: miter"/>
    </defs>
    <g clip-path="url(#pebd12228ae)">
     <use xlink:href="#m3e6f481c8d" x="115.843366" y="19.340457" style="fill: #0000ff; fill-opacity: 0.9; stroke: #0000ff; stroke-opacity: 0.9; stroke-linejoin: miter"/>
     <use xlink:href="#m3e6f481c8d" x="142.897912" y="21.183764" style="fill: #0000ff; fill-opacity: 0.9; stroke: #0000ff; stroke-opacity: 0.9; stroke-linejoin: miter"/>
     <use xlink:href="#m3e6f481c8d" x="169.952457" y="26.764191" style="fill: #0000ff; fill-opacity: 0.9; stroke: #0000ff; stroke-opacity: 0.9; stroke-linejoin: miter"/>
     <use xlink:href="#m3e6f481c8d" x="197.007003" y="36.233546" style="fill: #0000ff; fill-opacity: 0.9; stroke: #0000ff; stroke-opacity: 0.9; stroke-linejoin: miter"/>
     <use xlink:href="#m3e6f481c8d" x="224.061548" y="49.850699" style="fill: #0000ff; fill-opacity: 0.9; stroke: #0000ff; stroke-opacity: 0.9; stroke-linejoin: miter"/>
     <use xlink:href="#m3e6f481c8d" x="251.116094" y="68.016583" style="fill: #0000ff; fill-opacity: 0.9; stroke: #0000ff; stroke-opacity: 0.9; stroke-linejoin: miter"/>
     <use xlink:href="#m3e6f481c8d" x="278.170639" y="91.468249" style="fill: #0000ff; fill-opacity: 0.9; stroke: #0000ff; stroke-opacity: 0.9; stroke-linejoin: miter"/>
     <use xlink:href="#m3e6f481c8d" x="305.225185" y="121.990296" style="fill: #0000ff; fill-opacity: 0.9; stroke: #0000ff; stroke-opacity: 0.9; stroke-linejoin: miter"/>
     <use xlink:href="#m3e6f481c8d" x="332.27973" y="155.711403" style="fill: #0000ff; fill-opacity: 0.9; stroke: #0000ff; stroke-opacity: 0.9; stroke-linejoin: miter"/>
     <use xlink:href="#m3e6f481c8d" x="359.334276" y="189.736525" style="fill: #0000ff; fill-opacity: 0.9; stroke: #0000ff; stroke-opacity: 0.9; stroke-linejoin: miter"/>
     <use xlink:href="#m3e6f481c8d" x="386.388821" y="224.239119" style="fill: #0000ff; fill-opacity: 0.9; stroke: #0000ff; stroke-opacity: 0.9; stroke-linejoin: miter"/>
    </g>
   </g>
   <g id="line2d_15">
    <defs>
     <path id="m04085fc787" d="M -3 3 
L 3 3 
L 3 -3 
L -3 -3 
z
" style="stroke: #708090; stroke-opacity: 0.9; stroke-linejoin: miter"/>
    </defs>
    <g clip-path="url(#pebd12228ae)">
     <use xlink:href="#m04085fc787" x="115.843366" y="19.313784" style="fill: #708090; fill-opacity: 0.9; stroke: #708090; stroke-opacity: 0.9; stroke-linejoin: miter"/>
     <use xlink:href="#m04085fc787" x="142.897912" y="21.158566" style="fill: #708090; fill-opacity: 0.9; stroke: #708090; stroke-opacity: 0.9; stroke-linejoin: miter"/>
     <use xlink:href="#m04085fc787" x="169.952457" y="26.688328" style="fill: #708090; fill-opacity: 0.9; stroke: #708090; stroke-opacity: 0.9; stroke-linejoin: miter"/>
     <use xlink:href="#m04085fc787" x="197.007003" y="36.137738" style="fill: #708090; fill-opacity: 0.9; stroke: #708090; stroke-opacity: 0.9; stroke-linejoin: miter"/>
     <use xlink:href="#m04085fc787" x="224.061548" y="48.283968" style="fill: #708090; fill-opacity: 0.9; stroke: #708090; stroke-opacity: 0.9; stroke-linejoin: miter"/>
     <use xlink:href="#m04085fc787" x="251.116094" y="63.548762" style="fill: #708090; fill-opacity: 0.9; stroke: #708090; stroke-opacity: 0.9; stroke-linejoin: miter"/>
     <use xlink:href="#m04085fc787" x="278.170639" y="78.568036" style="fill: #708090; fill-opacity: 0.9; stroke: #708090; stroke-opacity: 0.9; stroke-linejoin: miter"/>
     <use xlink:href="#m04085fc787" x="305.225185" y="114.771851" style="fill: #708090; fill-opacity: 0.9; stroke: #708090; stroke-opacity: 0.9; stroke-linejoin: miter"/>
     <use xlink:href="#m04085fc787" x="332.27973" y="147.558698" style="fill: #708090; fill-opacity: 0.9; stroke: #708090; stroke-opacity: 0.9; stroke-linejoin: miter"/>
     <use xlink:href="#m04085fc787" x="359.334276" y="183.549736" style="fill: #708090; fill-opacity: 0.9; stroke: #708090; stroke-opacity: 0.9; stroke-linejoin: miter"/>
     <use xlink:href="#m04085fc787" x="386.388821" y="206.043858" style="fill: #708090; fill-opacity: 0.9; stroke: #708090; stroke-opacity: 0.9; stroke-linejoin: miter"/>
    </g>
   </g>
   <g id="patch_3">
    <path d="M 72.556094 273.312 
L 72.556094 7.2 
" style="fill: none; stroke: #000000; stroke-width: 0.8; stroke-linejoin: miter; stroke-linecap: square"/>
   </g>
   <g id="patch_4">
    <path d="M 429.676094 273.312 
L 429.676094 7.2 
" style="fill: none; stroke: #000000; stroke-width: 0.8; stroke-linejoin: miter; stroke-linecap: square"/>
   </g>
   <g id="patch_5">
    <path d="M 72.556094 273.312 
L 429.676094 273.312 
" style="fill: none; stroke: #000000; stroke-width: 0.8; stroke-linejoin: miter; stroke-linecap: square"/>
   </g>
   <g id="patch_6">
    <path d="M 72.556094 7.2 
L 429.676094 7.2 
" style="fill: none; stroke: #000000; stroke-width: 0.8; stroke-linejoin: miter; stroke-linecap: square"/>
   </g>
  </g>
  <g id="legend_1">
   <g id="patch_7">
    <path d="M 95.176094 237.708 
L 230.197344 237.708 
Q 232.797344 237.708 232.797344 235.108 
L 232.797344 158.997062 
Q 232.797344 156.397062 230.197344 156.397062 
L 95.176094 156.397062 
Q 92.576094 156.397062 92.576094 158.997062 
L 92.576094 235.108 
Q 92.576094 237.708 95.176094 237.708 
z
" style="fill: #4c4c4c; opacity: 0.5; stroke: #4c4c4c; stroke-linejoin: miter"/>
   </g>
   <g id="patch_8">
    <path d="M 93.176094 235.708 
L 228.197344 235.708 
Q 230.797344 235.708 230.797344 233.108 
L 230.797344 156.997062 
Q 230.797344 154.397062 228.197344 154.397062 
L 93.176094 154.397062 
Q 90.576094 154.397062 90.576094 156.997062 
L 90.576094 233.108 
Q 90.576094 235.708 93.176094 235.708 
z
" style="fill: #ffffff; stroke: #cccccc; stroke-linejoin: miter"/>
   </g>
   <g id="line2d_16">
    <path d="M 95.776094 164.925031 
L 108.776094 164.925031 
L 121.776094 164.925031 
" style="fill: none; stroke-dasharray: 5.55,2.4; stroke-dashoffset: 0; stroke: #800080; stroke-width: 1.5"/>
   </g>
   <g id="text_14">
    <!-- Exact energy -->
    <g transform="translate(132.176094 169.475031) scale(0.13 -0.13)">
     <defs>
      <path id="DejaVuSans-63" d="M 3122 3366 
L 3122 2828 
Q 2878 2963 2633 3030 
Q 2388 3097 2138 3097 
Q 1578 3097 1268 2742 
Q 959 2388 959 1747 
Q 959 1106 1268 751 
Q 1578 397 2138 397 
Q 2388 397 2633 464 
Q 2878 531 3122 666 
L 3122 134 
Q 2881 22 2623 -34 
Q 2366 -91 2075 -91 
Q 1284 -91 818 406 
Q 353 903 353 1747 
Q 353 2603 823 3093 
Q 1294 3584 2113 3584 
Q 2378 3584 2631 3529 
Q 2884 3475 3122 3366 
z
" transform="scale(0.015625)"/>
      <path id="DejaVuSans-67" d="M 2906 1791 
Q 2906 2416 2648 2759 
Q 2391 3103 1925 3103 
Q 1463 3103 1205 2759 
Q 947 2416 947 1791 
Q 947 1169 1205 825 
Q 1463 481 1925 481 
Q 2391 481 2648 825 
Q 2906 1169 2906 1791 
z
M 3481 434 
Q 3481 -459 3084 -895 
Q 2688 -1331 1869 -1331 
Q 1566 -1331 1297 -1286 
Q 1028 -1241 775 -1147 
L 775 -588 
Q 1028 -725 1275 -790 
Q 1522 -856 1778 -856 
Q 2344 -856 2625 -561 
Q 2906 -266 2906 331 
L 2906 616 
Q 2728 306 2450 153 
Q 2172 0 1784 0 
Q 1141 0 747 490 
Q 353 981 353 1791 
Q 353 2603 747 3093 
Q 1141 3584 1784 3584 
Q 2172 3584 2450 3431 
Q 2728 3278 2906 2969 
L 2906 3500 
L 3481 3500 
L 3481 434 
z
" transform="scale(0.015625)"/>
      <path id="DejaVuSans-79" d="M 2059 -325 
Q 1816 -950 1584 -1140 
Q 1353 -1331 966 -1331 
L 506 -1331 
L 506 -850 
L 844 -850 
Q 1081 -850 1212 -737 
Q 1344 -625 1503 -206 
L 1606 56 
L 191 3500 
L 800 3500 
L 1894 763 
L 2988 3500 
L 3597 3500 
L 2059 -325 
z
" transform="scale(0.015625)"/>
     </defs>
     <use xlink:href="#DejaVuSans-45"/>
     <use xlink:href="#DejaVuSans-78" x="63.183594"/>
     <use xlink:href="#DejaVuSans-61" x="122.363281"/>
     <use xlink:href="#DejaVuSans-63" x="183.642578"/>
     <use xlink:href="#DejaVuSans-74" x="238.623047"/>
     <use xlink:href="#DejaVuSans-20" x="277.832031"/>
     <use xlink:href="#DejaVuSans-65" x="309.619141"/>
     <use xlink:href="#DejaVuSans-6e" x="371.142578"/>
     <use xlink:href="#DejaVuSans-65" x="434.521484"/>
     <use xlink:href="#DejaVuSans-72" x="496.044922"/>
     <use xlink:href="#DejaVuSans-67" x="535.408203"/>
     <use xlink:href="#DejaVuSans-79" x="598.884766"/>
    </g>
   </g>
   <g id="line2d_17">
    <path d="M 95.776094 184.006594 
L 108.776094 184.006594 
L 121.776094 184.006594 
" style="fill: none; stroke: #ffa500; stroke-width: 1.5; stroke-linecap: square"/>
    <g>
     <use xlink:href="#m490b6a7f8b" x="108.776094" y="184.006594" style="fill: #ffa500; stroke: #ffa500; stroke-linejoin: miter"/>
    </g>
   </g>
   <g id="text_15">
    <!-- QN_PSR -->
    <g transform="translate(132.176094 188.556594) scale(0.13 -0.13)">
     <defs>
      <path id="DejaVuSans-51" d="M 2522 4238 
Q 1834 4238 1429 3725 
Q 1025 3213 1025 2328 
Q 1025 1447 1429 934 
Q 1834 422 2522 422 
Q 3209 422 3611 934 
Q 4013 1447 4013 2328 
Q 4013 3213 3611 3725 
Q 3209 4238 2522 4238 
z
M 3406 84 
L 4238 -825 
L 3475 -825 
L 2784 -78 
Q 2681 -84 2626 -87 
Q 2572 -91 2522 -91 
Q 1538 -91 948 567 
Q 359 1225 359 2328 
Q 359 3434 948 4092 
Q 1538 4750 2522 4750 
Q 3503 4750 4090 4092 
Q 4678 3434 4678 2328 
Q 4678 1516 4351 937 
Q 4025 359 3406 84 
z
" transform="scale(0.015625)"/>
      <path id="DejaVuSans-5f" d="M 3263 -1063 
L 3263 -1509 
L -63 -1509 
L -63 -1063 
L 3263 -1063 
z
" transform="scale(0.015625)"/>
      <path id="DejaVuSans-50" d="M 1259 4147 
L 1259 2394 
L 2053 2394 
Q 2494 2394 2734 2622 
Q 2975 2850 2975 3272 
Q 2975 3691 2734 3919 
Q 2494 4147 2053 4147 
L 1259 4147 
z
M 628 4666 
L 2053 4666 
Q 2838 4666 3239 4311 
Q 3641 3956 3641 3272 
Q 3641 2581 3239 2228 
Q 2838 1875 2053 1875 
L 1259 1875 
L 1259 0 
L 628 0 
L 628 4666 
z
" transform="scale(0.015625)"/>
      <path id="DejaVuSans-53" d="M 3425 4513 
L 3425 3897 
Q 3066 4069 2747 4153 
Q 2428 4238 2131 4238 
Q 1616 4238 1336 4038 
Q 1056 3838 1056 3469 
Q 1056 3159 1242 3001 
Q 1428 2844 1947 2747 
L 2328 2669 
Q 3034 2534 3370 2195 
Q 3706 1856 3706 1288 
Q 3706 609 3251 259 
Q 2797 -91 1919 -91 
Q 1588 -91 1214 -16 
Q 841 59 441 206 
L 441 856 
Q 825 641 1194 531 
Q 1563 422 1919 422 
Q 2459 422 2753 634 
Q 3047 847 3047 1241 
Q 3047 1584 2836 1778 
Q 2625 1972 2144 2069 
L 1759 2144 
Q 1053 2284 737 2584 
Q 422 2884 422 3419 
Q 422 4038 858 4394 
Q 1294 4750 2059 4750 
Q 2388 4750 2728 4690 
Q 3069 4631 3425 4513 
z
" transform="scale(0.015625)"/>
      <path id="DejaVuSans-52" d="M 2841 2188 
Q 3044 2119 3236 1894 
Q 3428 1669 3622 1275 
L 4263 0 
L 3584 0 
L 2988 1197 
Q 2756 1666 2539 1819 
Q 2322 1972 1947 1972 
L 1259 1972 
L 1259 0 
L 628 0 
L 628 4666 
L 2053 4666 
Q 2853 4666 3247 4331 
Q 3641 3997 3641 3322 
Q 3641 2881 3436 2590 
Q 3231 2300 2841 2188 
z
M 1259 4147 
L 1259 2491 
L 2053 2491 
Q 2509 2491 2742 2702 
Q 2975 2913 2975 3322 
Q 2975 3731 2742 3939 
Q 2509 4147 2053 4147 
L 1259 4147 
z
" transform="scale(0.015625)"/>
     </defs>
     <use xlink:href="#DejaVuSans-51"/>
     <use xlink:href="#DejaVuSans-4e" x="78.710938"/>
     <use xlink:href="#DejaVuSans-5f" x="153.515625"/>
     <use xlink:href="#DejaVuSans-50" x="203.515625"/>
     <use xlink:href="#DejaVuSans-53" x="263.818359"/>
     <use xlink:href="#DejaVuSans-52" x="327.294922"/>
    </g>
   </g>
   <g id="LineCollection_3">
    <path d="M 108.776094 209.949719 
L 108.776094 196.949719 
" style="fill: none; stroke: #0000ff; stroke-opacity: 0.9; stroke-width: 1.5"/>
   </g>
   <g id="line2d_18"/>
   <g id="line2d_19">
    <g>
     <use xlink:href="#m3e6f481c8d" x="108.776094" y="203.449719" style="fill: #0000ff; fill-opacity: 0.9; stroke: #0000ff; stroke-opacity: 0.9; stroke-linejoin: miter"/>
    </g>
   </g>
   <g id="text_16">
    <!-- QNSPSA_PRS -->
    <g transform="translate(132.176094 207.999719) scale(0.13 -0.13)">
     <defs>
      <path id="DejaVuSans-41" d="M 2188 4044 
L 1331 1722 
L 3047 1722 
L 2188 4044 
z
M 1831 4666 
L 2547 4666 
L 4325 0 
L 3669 0 
L 3244 1197 
L 1141 1197 
L 716 0 
L 50 0 
L 1831 4666 
z
" transform="scale(0.015625)"/>
     </defs>
     <use xlink:href="#DejaVuSans-51"/>
     <use xlink:href="#DejaVuSans-4e" x="78.710938"/>
     <use xlink:href="#DejaVuSans-53" x="153.515625"/>
     <use xlink:href="#DejaVuSans-50" x="216.992188"/>
     <use xlink:href="#DejaVuSans-53" x="277.294922"/>
     <use xlink:href="#DejaVuSans-41" x="342.646484"/>
     <use xlink:href="#DejaVuSans-5f" x="411.054688"/>
     <use xlink:href="#DejaVuSans-50" x="461.054688"/>
     <use xlink:href="#DejaVuSans-52" x="521.357422"/>
     <use xlink:href="#DejaVuSans-53" x="590.839844"/>
    </g>
   </g>
   <g id="LineCollection_4">
    <path d="M 108.776094 229.392844 
L 108.776094 216.392844 
" style="fill: none; stroke: #708090; stroke-opacity: 0.9; stroke-width: 1.5"/>
   </g>
   <g id="line2d_20"/>
   <g id="line2d_21">
    <g>
     <use xlink:href="#m04085fc787" x="108.776094" y="222.892844" style="fill: #708090; fill-opacity: 0.9; stroke: #708090; stroke-opacity: 0.9; stroke-linejoin: miter"/>
    </g>
   </g>
   <g id="text_17">
    <!-- QNSPSA_SPSA -->
    <g transform="translate(132.176094 227.442844) scale(0.13 -0.13)">
     <use xlink:href="#DejaVuSans-51"/>
     <use xlink:href="#DejaVuSans-4e" x="78.710938"/>
     <use xlink:href="#DejaVuSans-53" x="153.515625"/>
     <use xlink:href="#DejaVuSans-50" x="216.992188"/>
     <use xlink:href="#DejaVuSans-53" x="277.294922"/>
     <use xlink:href="#DejaVuSans-41" x="342.646484"/>
     <use xlink:href="#DejaVuSans-5f" x="411.054688"/>
     <use xlink:href="#DejaVuSans-53" x="461.054688"/>
     <use xlink:href="#DejaVuSans-50" x="524.53125"/>
     <use xlink:href="#DejaVuSans-53" x="584.833984"/>
     <use xlink:href="#DejaVuSans-41" x="650.185547"/>
    </g>
   </g>
  </g>
 </g>
 <defs>
  <clipPath id="pebd12228ae">
   <rect x="72.556094" y="7.2" width="357.12" height="266.112"/>
  </clipPath>
 </defs>
</svg>
